<svg width="19" height="10" viewBox="0 0 19 10" fill="none" xmlns="http://www.w3.org/2000/svg">
<path opacity="0.6" d="M7.64774 0H5.8319C5.52437 0 5.37036 0.371808 5.58782 0.589259L9.91434 4.91578L5.58782 9.2423C5.37036 9.45975 5.52437 9.83156 5.8319 9.83156H7.64774C7.73929 9.83156 7.82709 9.79519 7.89182 9.73045L12.4624 5.15986C12.5972 5.02506 12.5972 4.8065 12.4624 4.6717L7.89182 0.101101C7.82709 0.0363668 7.73929 0 7.64774 0Z" fill="#FF7D44"/>
<path d="M13.153 0H11.3179C11.0104 0 10.8564 0.371808 11.0738 0.589259L15.4003 4.91578L11.0738 9.2423C10.8564 9.45975 11.0104 9.83156 11.3179 9.83156H13.1337C13.2253 9.83156 13.3131 9.79519 13.3778 9.73045L17.9489 5.15937C18.0835 5.02476 18.0837 4.80658 17.9494 4.6717L13.3976 0.101591C13.3328 0.0365571 13.2448 0 13.153 0Z" fill="#FF7D44"/>
<path d="M2.16172 0H0.345872C0.0383495 0 -0.115658 0.371808 0.101793 0.589259L4.42831 4.91578L0.101793 9.2423C-0.115658 9.45975 0.0383495 9.83156 0.345872 9.83156H2.16172C2.25326 9.83156 2.34106 9.79519 2.4058 9.73045L6.97639 5.15986C7.1112 5.02506 7.1112 4.8065 6.97639 4.6717L2.4058 0.101101C2.34106 0.0363668 2.25326 0 2.16172 0Z" fill="#FF7D44" fill-opacity="0.3"/>
</svg>
