<svg width="19" height="10" viewBox="0 0 19 10" fill="none" xmlns="http://www.w3.org/2000/svg">
<path opacity="0.6" d="M10.4022 0H12.2181C12.5256 0 12.6796 0.371808 12.4622 0.589259L8.13565 4.91578L12.4622 9.2423C12.6796 9.45975 12.5256 9.83156 12.2181 9.83156H10.4022C10.3107 9.83156 10.2229 9.79519 10.1582 9.73045L5.58757 5.15986C5.45277 5.02506 5.45277 4.8065 5.58757 4.6717L10.1582 0.101101C10.2229 0.0363668 10.3107 0 10.4022 0Z" fill="#FF7D44"/>
<path d="M4.897 0H6.7321C7.03962 0 7.19363 0.371808 6.97618 0.589259L2.64966 4.91578L6.97618 9.2423C7.19363 9.45975 7.03962 9.83156 6.7321 9.83156H4.91625C4.82471 9.83156 4.73691 9.79519 4.67218 9.73045L0.101091 5.15937C-0.0335188 5.02476 -0.0337377 4.80658 0.100603 4.6717L4.65243 0.101591C4.7172 0.0365571 4.80521 0 4.897 0Z" fill="#FF7D44"/>
<path d="M15.8883 0H17.7041C18.0116 0 18.1656 0.371808 17.9482 0.589259L13.6217 4.91578L17.9482 9.2423C18.1656 9.45975 18.0116 9.83156 17.7041 9.83156H15.8883C15.7967 9.83156 15.7089 9.79519 15.6442 9.73045L11.0736 5.15986C10.9388 5.02506 10.9388 4.8065 11.0736 4.6717L15.6442 0.101101C15.7089 0.0363668 15.7967 0 15.8883 0Z" fill="#FF7D44" fill-opacity="0.3"/>
</svg>
