<svg width="139" height="32" viewBox="0 0 139 32" fill="none" xmlns="http://www.w3.org/2000/svg">
<path fill-rule="evenodd" clip-rule="evenodd" d="M28.0637 4.42309C28.0637 3.32265 28.6696 2.7594 30.0595 2.58112C30.2867 2.55272 30.7269 2.53379 31.47 2.53379H34.2491L34.4148 0.142784H31.6782C30.3088 0.142784 29.2446 0.258743 28.1702 0.584539C25.9023 1.26926 24.8239 2.7318 24.8239 4.80569C24.8239 9.63582 31.1118 8.74126 31.1118 11.8343C31.1118 13.259 30.2149 14.2009 27.5809 14.2009C26.3961 14.2009 25.0897 14.0076 24.0753 13.7426L23.8583 16.3261C24.8957 16.5446 26.1302 16.6882 27.3151 16.6882C32.1247 16.6882 34.5197 14.5149 34.5197 11.4951C34.5197 8.44781 32.2107 7.46412 30.3545 6.61373C28.9599 5.97398 28.0637 5.4628 28.0637 4.42309ZM45.0083 2.34289C46.1687 2.34289 47.5957 2.5827 48.5865 2.94715L49.0945 0.508808C47.8329 0.170446 46.5322 -0.000619314 45.226 1.68466e-06C38.2896 1.68466e-06 36.7892 5.17014 36.7892 9.41889C36.7892 13.7662 38.5066 16.5935 43.728 16.5935C45.3002 16.5935 46.8455 16.3986 48.3459 15.9167L48.1511 13.5501C47.281 13.8633 45.8074 14.2009 44.4048 14.2009C41.0443 14.2009 40.0764 12.0047 40.0764 8.86354C40.0756 6.06233 40.9946 2.34289 45.0083 2.34289ZM64.7296 16.4452L65.5989 0.145937H62.5043L62.1422 6.8354H54.9131L55.2776 0.145937H52.1585L51.2883 16.4452H54.4051L54.7916 9.1775H62.0207L61.6342 16.4452H64.7296ZM78.1662 16.4452L78.2861 14.1757H72.316L72.5827 9.10571H78.2648L78.3831 6.93085H72.7026L72.9447 2.39101H78.9179L79.0363 0.145937H69.9723L69.1014 16.4452H78.1662ZM93.0329 0.145937L92.7663 4.97529C92.6448 6.95609 92.5722 10.4341 92.5722 12.3645C92.162 11.4707 91.7281 10.6022 91.2919 9.73521L86.5051 0.146726H82.8322L81.9605 16.4468H84.959L85.1996 10.9414C85.2737 9.08284 85.3952 6.18381 85.3952 4.46963C85.7328 5.21747 86.0949 5.96766 86.5059 6.78965L91.2927 16.4468H95.0879L95.9588 0.146726L93.0329 0.145937ZM111.956 16.4452L105.621 7.77808L112.705 0.145937H108.886L103.036 7.14857L103.423 0.145937H100.328L99.4589 16.4452H102.551L102.938 9.08126L107.991 16.4452H111.956ZM123.39 16.4452L123.509 14.1757H117.539L117.804 9.10571H123.485L123.606 6.93085H117.924L118.167 2.39101H124.138L124.258 0.145937H115.194L114.322 16.4452H123.39ZM138.64 16.4452L135.039 10.4333C134.732 9.93275 134.409 9.4416 134.071 8.96057C136.732 8.38076 138.373 6.5451 138.373 4.13043C138.373 0.699713 135.569 0.0489077 132.524 0.0489077C131.026 0.0489077 129.528 0.0962396 128.052 0.145937L127.182 16.446H130.299L130.638 9.66107L130.661 9.22483H130.905L134.893 16.446L138.64 16.4452ZM132.041 2.24586C134.217 2.24586 135.136 3.01893 135.136 4.5422C135.136 6.06232 133.78 7.07679 131.654 7.07679C131.317 7.07679 130.98 7.05233 130.783 7.02788L131.049 2.29477C131.366 2.2711 131.752 2.24586 132.041 2.24586Z" fill="#F94735"/>
<path fill-rule="evenodd" clip-rule="evenodd" d="M6.26507 0.0727539H0V6.33466C0.353983 4.80935 1.12875 3.41392 2.23626 2.30698C3.34376 1.20004 4.73958 0.425968 6.26507 0.0727539ZM16.3024 6.33466V0.0727539H10.035C11.5608 0.425916 12.9569 1.19992 14.0648 2.30684C15.1727 3.41375 15.9479 4.80921 16.3024 6.33466ZM0 10.0975V16.3594H6.26507C4.73966 16.006 3.34393 15.2319 2.23646 14.125C1.12898 13.018 0.354153 11.6227 0 10.0975ZM10.035 16.3594H16.3024V10.0975C15.9479 11.6229 15.1726 13.0183 14.0647 14.1252C12.9568 15.2321 11.5607 16.0061 10.035 16.3594Z" fill="#F94735"/>
<path fill-rule="evenodd" clip-rule="evenodd" d="M11.1371 10.0729C11.8328 10.9272 12.314 11.5591 12.314 12.4252C12.314 14.1583 10.4334 15.6161 8.15914 16.3577C9.79443 15.0332 10.069 13.8578 10.069 13.3916C10.069 12.8544 9.9948 12.471 9.42998 11.731L5.05579 6.44889C4.36002 5.59693 3.96875 4.93666 3.96875 4.06892C3.96875 2.09995 5.97875 0.787304 8.15914 0.0678711C6.35345 1.34187 6.09787 2.57485 6.09787 3.04027C6.09787 3.57826 6.19647 4.05315 6.76287 4.78994L11.1371 10.0729Z" fill="#F94735"/>
<path fill-rule="evenodd" clip-rule="evenodd" d="M58.1667 27.1128C58.1999 26.4778 57.6264 26.2443 56.9629 25.9753C56.0952 25.6227 55.1107 25.222 55.1864 23.787C55.2535 22.4862 56.3942 21.6461 58.0926 21.6461C58.5304 21.6461 59.0447 21.6989 59.421 21.7834L59.2104 22.9808C58.8104 22.8461 58.3916 22.775 57.9695 22.7702C57.1633 22.7702 56.6845 23.1141 56.6537 23.7113C56.6206 24.3093 57.198 24.5499 57.8717 24.8307C58.76 25.2038 59.7665 25.6227 59.6955 27.0008C59.6261 28.3497 58.3837 29.3232 56.7444 29.3232C56.0424 29.3232 55.4933 29.2664 55.0168 29.1418C55.0295 29.0755 55.2338 27.9198 55.2464 27.8473C55.751 28.0353 56.2856 28.1301 56.8241 28.1273C57.6303 28.1273 58.1344 27.7486 58.1667 27.1128ZM62.9724 21.6808C62.9685 21.7747 62.8659 23.6884 62.8659 23.6884H64.4973C64.4949 23.7602 64.4444 24.7139 64.4421 24.777H62.8115L62.6719 27.4118C62.6695 27.4402 62.6695 27.471 62.6695 27.497C62.6695 27.7203 62.7232 27.8859 62.8273 27.9948C62.9354 28.1099 63.0979 28.1628 63.3353 28.1628C63.5791 28.1628 63.8899 28.1218 64.1439 28.0626C64.1518 28.132 64.252 29.0921 64.2567 29.1512C63.8307 29.2617 63.3826 29.3232 62.9937 29.3232C62.3311 29.3232 61.8949 29.1907 61.6203 28.9035C61.3647 28.6314 61.2519 28.2141 61.2851 27.6209L61.4342 24.7778H60.5396C60.5412 24.71 60.5925 23.7523 60.5972 23.6892H61.4894L61.5777 22.035C61.6235 22.0247 62.8849 21.7021 62.9724 21.6808ZM67.3032 23.6884C67.2993 23.7642 67.0169 29.1362 67.0145 29.2025H65.6372C65.6388 29.1283 65.9212 23.7578 65.9259 23.6884H67.3032ZM67.461 21.1499L67.3876 22.5517H65.9614L66.0348 21.1499H67.461ZM70.334 24.284C70.6748 23.9385 71.115 23.5677 72.0269 23.5677C72.6738 23.5677 73.1313 23.7192 73.4271 24.0284C73.7087 24.325 73.8413 24.7676 73.8413 25.4081C73.8413 25.4957 73.8397 25.588 73.8334 25.6842C73.8334 25.6842 73.6527 29.137 73.6519 29.2033H72.2714L72.4521 25.7702C72.4552 25.7134 72.4584 25.659 72.4584 25.6061C72.4584 25.2646 72.3921 25.035 72.2533 24.8899C72.1365 24.7676 71.9654 24.706 71.7326 24.706C71.2609 24.706 70.745 24.9664 70.4121 25.3718C70.4058 25.3916 70.2244 28.8593 70.2054 29.2033H68.8273C68.8312 29.1291 69.1137 23.7586 69.116 23.6892H70.2883C70.2867 23.7563 70.2543 24.34 70.2543 24.34L70.334 24.284ZM76.9683 24.284C77.3106 23.9385 77.7477 23.5677 78.6612 23.5677C79.3096 23.5677 79.7671 23.7192 80.0582 24.0284C80.3414 24.325 80.4755 24.7676 80.4755 25.4081C80.4755 25.4957 80.4739 25.588 80.4661 25.6842L80.283 29.2033H78.9057C78.9104 29.1291 79.0863 25.7702 79.0863 25.7702C79.0879 25.7134 79.0927 25.659 79.0927 25.6061C79.0927 25.2646 79.0248 25.035 78.8876 24.8899C78.7692 24.7676 78.5996 24.706 78.3653 24.706C77.8968 24.706 77.3793 24.9664 77.0479 25.3718C77.0416 25.3916 76.857 28.8593 76.8413 29.2033H75.4639L75.7519 23.6892H76.9241C76.9194 23.7563 76.8918 24.34 76.8918 24.34L76.9683 24.284ZM83.332 25.7536L83.3272 25.7923H85.4563V25.7592C85.4792 25.3584 85.3838 25.035 85.1818 24.822C85.0091 24.6414 84.7692 24.5475 84.4789 24.5475C83.8676 24.5483 83.4053 25.0326 83.332 25.7536ZM82.4532 28.6598C82.0035 28.1872 81.8047 27.4378 81.8552 26.4376C81.9459 24.7202 83.0551 23.5677 84.6194 23.5677C85.3207 23.5677 85.8752 23.7768 86.2649 24.1838C86.6238 24.5664 86.8226 25.1091 86.8226 25.7308C86.8226 25.782 86.8211 25.8357 86.8147 25.8885L86.7359 26.7484H83.2539V26.7918C83.2539 27.3298 83.369 27.71 83.6112 27.9522C83.8423 28.1857 84.1902 28.2961 84.673 28.2961C85.2142 28.2961 85.8058 28.1801 86.3075 27.9814C86.3217 28.0508 86.4905 28.9169 86.5031 28.9761C85.936 29.1915 85.1392 29.324 84.4095 29.324C83.5197 29.3232 82.8784 29.1078 82.4532 28.6598ZM90.1555 27.6832C90.18 27.2509 89.7919 27.1097 89.3454 26.9464C88.7167 26.7168 87.9373 26.4321 88.002 25.2046C88.054 24.2241 88.9447 23.5669 90.2179 23.5669C90.5926 23.5669 91.0083 23.608 91.4256 23.6821C91.4098 23.7515 91.2236 24.6682 91.2102 24.7337C90.8682 24.6398 90.5157 24.5892 90.1611 24.583C89.5836 24.583 89.4464 24.8796 89.4337 25.1273C89.4156 25.4831 89.7816 25.6203 90.206 25.7797C90.8624 26.0258 91.6788 26.3303 91.6157 27.5585C91.5589 28.6148 90.617 29.3224 89.272 29.3224C88.8224 29.3224 88.2828 29.2696 87.8466 29.1851C87.8608 29.1173 88.0501 28.1557 88.0619 28.0879C88.4043 28.2007 88.8831 28.2717 89.3312 28.2717C90.023 28.2732 90.1445 27.9009 90.1555 27.6832ZM127.421 21.1767C127.419 21.2461 127.355 22.4428 127.352 22.5091H125.969C125.971 22.4389 126.037 21.2383 126.039 21.1767H127.421ZM114.709 21.1767C114.707 21.2461 114.641 22.4428 114.639 22.5091H113.257C113.259 22.4389 113.325 21.2383 113.33 21.1767H114.709ZM96.7835 21.7455L96.4537 28.005H98.9481C98.9465 28.0744 98.8881 29.141 98.8866 29.2033H94.9857C94.9873 29.1291 95.3722 21.8165 95.3754 21.7463L96.7835 21.7455ZM101.151 26.4313C101.118 27.086 101.24 27.5656 101.513 27.8536C101.716 28.065 102.001 28.1754 102.358 28.1754C103.157 28.1754 103.69 27.5017 103.747 26.421C103.781 25.7702 103.662 25.2969 103.394 25.0145C103.197 24.8054 102.912 24.6997 102.552 24.6997C101.693 24.6989 101.212 25.2969 101.151 26.4313ZM100.318 28.6621C99.8774 28.1975 99.6786 27.4725 99.7298 26.5054C99.8253 24.6895 100.957 23.5622 102.686 23.5622C103.509 23.5622 104.138 23.7847 104.555 24.2233C105.003 24.6966 105.204 25.4192 105.155 26.3705C105.058 28.1928 103.949 29.3264 102.258 29.3264C101.387 29.3256 100.736 29.1015 100.318 28.6621ZM107.63 26.5149C107.593 27.2004 107.703 27.6816 107.952 27.9435C108.097 28.0973 108.29 28.1754 108.527 28.1754C108.986 28.1754 109.449 27.9356 109.788 27.5207L109.797 27.5096L109.942 24.7486L109.916 24.7384C109.73 24.6705 109.483 24.6398 109.158 24.6398C108.236 24.6398 107.693 25.3056 107.63 26.5149ZM106.751 28.7742C106.322 28.3245 106.133 27.5846 106.185 26.578C106.284 24.6966 107.438 23.5733 109.276 23.5733C110.154 23.5733 110.805 23.6513 111.374 23.7373C111.373 23.8028 111.069 29.5646 111.069 29.5646C111.014 30.6098 110.626 31.9998 107.91 31.9998C107.434 32.002 106.958 31.9598 106.49 31.8736C106.499 31.8081 106.624 30.7644 106.632 30.6879C107.055 30.8236 107.632 30.8741 108.046 30.8741C109.041 30.8741 109.63 30.6508 109.69 29.507L109.698 29.3634L109.746 28.7268L109.667 28.7757C109.303 29.107 108.754 29.324 108.27 29.324C107.609 29.3256 107.096 29.141 106.751 28.7742ZM114.578 23.6821C114.573 23.7578 114.291 29.1362 114.29 29.2025H112.908C112.909 29.1283 113.192 23.75 113.196 23.6821H114.578ZM118.197 27.6816C118.218 27.2517 117.832 27.1081 117.382 26.9424C116.753 26.7129 115.972 26.4313 116.037 25.1983C116.088 24.2185 116.981 23.5614 118.258 23.5614C118.664 23.5649 119.069 23.6037 119.468 23.6774C119.398 24.0286 119.326 24.3794 119.252 24.7297C118.909 24.6355 118.556 24.5849 118.2 24.579C117.621 24.579 117.484 24.8757 117.47 25.1226C117.451 25.4783 117.819 25.618 118.246 25.7757C118.902 26.0211 119.72 26.3256 119.657 27.5562C119.602 28.6124 118.658 29.3248 117.307 29.3248C116.857 29.3248 116.316 29.2696 115.88 29.1851C115.893 29.1173 116.084 28.1557 116.095 28.0855C116.439 28.1991 116.918 28.2717 117.366 28.2717C118.061 28.2732 118.186 27.9009 118.197 27.6816ZM122.936 21.6721C122.93 21.766 122.828 23.6821 122.828 23.6821H124.466L124.408 24.7731H122.773L122.634 27.4094C122.631 27.4402 122.631 27.4662 122.631 27.4954C122.631 27.7179 122.683 27.8835 122.786 27.9924C122.898 28.1076 123.059 28.1628 123.298 28.1628C123.571 28.1574 123.842 28.1231 124.108 28.0602C124.117 28.132 124.216 29.0897 124.222 29.1489C123.809 29.2604 123.383 29.3197 122.954 29.3256C122.289 29.3256 121.854 29.1907 121.579 28.9019C121.322 28.6298 121.21 28.2117 121.241 27.6209L121.39 24.7739H120.493C120.498 24.7045 120.547 23.746 120.552 23.6829H121.449C121.449 23.6829 121.531 22.08 121.536 22.0287C121.583 22.0184 122.848 21.6926 122.936 21.6721ZM127.277 23.6821C127.273 23.7578 126.99 29.1362 126.987 29.2025H125.607C125.61 29.1283 125.893 23.75 125.895 23.6821H127.277ZM129.118 28.711C128.694 28.2669 128.505 27.5459 128.555 26.578C128.657 24.6335 129.661 23.5614 131.381 23.5614C131.965 23.5614 132.461 23.6474 132.788 23.8036C132.766 23.8628 132.395 24.9048 132.372 24.9664C132.072 24.8124 131.74 24.7295 131.402 24.7242C130.558 24.7242 130.062 25.3545 130.001 26.5007C129.97 27.1026 130.087 27.5443 130.346 27.8189C130.546 28.0303 130.836 28.1399 131.201 28.1399C131.573 28.1399 131.967 28.05 132.281 27.9072C132.295 27.9782 132.526 28.9769 132.54 29.0353C132.059 29.2483 131.372 29.3256 130.917 29.3256C130.099 29.3256 129.511 29.1244 129.118 28.711ZM135.961 27.6816C135.984 27.2517 135.597 27.1081 135.148 26.9424C134.519 26.7129 133.737 26.4313 133.801 25.1983C133.853 24.2185 134.745 23.5614 136.021 23.5614C136.427 23.5649 136.832 23.6037 137.232 23.6774L137.018 24.7297C136.675 24.6355 136.32 24.5848 135.964 24.579C135.385 24.579 135.248 24.8757 135.235 25.1226C135.217 25.4783 135.583 25.618 136.01 25.7757C136.668 26.0211 137.486 26.3256 137.421 27.5562C137.366 28.6124 136.424 29.3248 135.073 29.3248C134.623 29.3248 134.082 29.2696 133.646 29.1851L133.86 28.0855C134.272 28.2103 134.7 28.273 135.13 28.2717C135.828 28.2732 135.952 27.9009 135.961 27.6816Z" fill="#F94735"/>
</svg>
