<svg width="106" height="27" viewBox="0 0 106 27" fill="none" xmlns="http://www.w3.org/2000/svg">
<mask id="mask0_172_3967" style="mask-type:luminance" maskUnits="userSpaceOnUse" x="0" y="0" width="106" height="27">
<path d="M106 0.916016H0V26.6731H106V0.916016Z" fill="white"/>
</mask>
<g mask="url(#mask0_172_3967)">
<path d="M71.9277 22.3676C73.2035 22.3676 74.0376 19.224 74.6428 16.7155C75.0845 14.8824 75.5424 12.8563 76.2539 11.3769C77.2597 9.26238 78.5519 8.16895 80.5637 8.16895C82.0276 8.16895 83.6386 8.72371 84.8489 11.3528C85.5359 12.8322 85.9366 14.7055 86.3373 16.5145C86.9671 19.3687 87.3023 22.4963 88.7008 22.4963C90.0992 22.4963 90.4344 19.3929 91.0642 16.5145C91.4649 14.7055 91.8574 12.8322 92.5526 11.3528C93.7629 8.72371 95.3985 8.16895 96.8378 8.16895C98.866 8.16895 100.142 9.23827 101.148 11.3769C101.859 12.8804 102.318 14.8824 102.758 16.7155C103.364 19.2401 104.198 22.3676 105.474 22.3676V25.8008C103.569 25.8008 102.064 24.8762 101.017 22.7134C100.289 21.1697 99.8062 19.3607 99.3644 17.4954C98.6942 14.6975 98.2526 11.4413 96.8378 11.4413C95.4394 11.4413 95.1041 14.2552 94.4744 17.1175C94.0737 18.9265 93.6811 21.1456 92.986 22.625C91.7757 25.254 90.3118 25.8088 88.7008 25.8088C87.0897 25.8088 85.6258 25.254 84.4155 22.625C83.7285 21.1456 83.3278 18.9265 82.9271 17.1175C82.2974 14.2633 81.9621 11.4413 80.5637 11.4413C79.1653 11.4413 78.6991 14.7215 78.0367 17.4954C77.5787 19.3687 77.1207 21.1938 76.3848 22.7134C75.338 24.8922 73.8333 25.8008 71.9277 25.8008" fill="#F94735"/>
<path d="M51.3992 16.5623C51.2357 11.4809 47.4247 8.03174 42.8042 8.03174C37.9547 8.03174 33.8984 11.6096 33.8984 16.9723C33.8984 22.335 37.9792 25.8565 42.657 25.8565C46.0263 25.8565 48.7823 24.4817 50.3689 21.7078C50.6387 21.2335 50.9331 20.4938 51.0394 20.124H47.5883C46.378 22.2787 44.5134 22.7933 42.6734 22.7933C40.1464 22.7933 37.8238 20.92 37.4886 17.8004H51.3911V16.5703L51.3992 16.5623ZM37.6439 14.9783C38.3145 12.4538 40.6371 11.1513 42.7879 11.1513C44.9387 11.1513 46.9668 12.4056 47.5965 14.9783H37.6439Z" fill="#F94735"/>
<path d="M71.157 16.5623C70.9935 11.4809 67.1826 8.03174 62.562 8.03174C57.7125 8.03174 53.6562 11.6096 53.6562 16.9723C53.6562 22.335 57.737 25.8565 62.4148 25.8565C65.7841 25.8565 68.5401 24.4817 70.1267 21.7078C70.3965 21.2335 70.6909 20.4938 70.7972 20.124H67.3462C66.1358 22.2787 64.2712 22.7933 62.4312 22.7933C59.9042 22.7933 57.5817 20.92 57.2464 17.8004H71.1489V16.5703L71.157 16.5623ZM57.4017 14.9783C58.0724 12.4538 60.3949 11.1513 62.5457 11.1513C64.6965 11.1513 66.7247 12.4056 67.3543 14.9783H57.4017Z" fill="#F94735"/>
<path d="M14.7121 0.916016V10.4515C13.1257 8.85154 11.0566 8.04755 8.50508 8.04755C6.20707 8.04755 4.21983 8.89174 2.52699 10.556C0.834152 12.2445 0 14.3831 0 16.9479C0 19.5126 0.834152 21.6594 2.52699 23.3397C4.20347 25.0281 6.20707 25.8482 8.50508 25.8482C11.032 25.8482 13.1011 25.0443 14.7121 23.4603V25.8482H18.3268V0.916016H14.7121ZM12.9948 21.1046C11.8663 22.1739 10.5496 22.7045 9.06118 22.7045C7.47465 22.7287 6.15801 22.19 5.08669 21.1448C4.01538 20.0996 3.50017 18.7006 3.50017 16.9479C3.50017 15.1951 4.02356 13.8444 5.08669 12.7751C6.14982 11.7058 7.46648 11.1752 9.06118 11.1752C10.5659 11.1752 11.8663 11.7058 12.9948 12.7751C14.1234 13.8444 14.6876 15.2434 14.6876 16.9237C14.6876 18.6041 14.1234 20.0273 12.9948 21.0966V21.1046Z" fill="#F94735"/>
<path d="M32.2401 8.73092C29.247 8.73092 27.178 9.77612 26.0085 11.6093V8.89976H22.4102V25.8482H26.0085V19.2875C26.0085 14.7208 27.9712 12.2364 32.1992 12.2364H32.7389V8.73896C32.5918 8.71484 32.4282 8.71484 32.2401 8.71484V8.73092Z" fill="#F94735"/>
</g>
</svg>
