<svg width="100" height="45" viewBox="0 0 100 45" fill="none" xmlns="http://www.w3.org/2000/svg">
<mask id="mask0_172_3977" style="mask-type:luminance" maskUnits="userSpaceOnUse" x="0" y="13" width="100" height="31">
<path d="M99.8407 13.853H0V43.8052H99.8407V13.853Z" fill="white"/>
</mask>
<g mask="url(#mask0_172_3977)">
<path fill-rule="evenodd" clip-rule="evenodd" d="M61.9394 37.2766C56.1374 41.5339 47.728 43.8053 40.4875 43.8053C30.3352 43.8053 21.1957 40.0672 14.2811 33.8501C13.7379 33.3612 14.2246 32.6949 14.8765 33.0756C22.3386 37.3978 31.5652 39.998 41.0959 39.998C47.5237 39.998 54.5946 38.6741 61.0963 35.9267C62.0785 35.5114 62.8998 36.5671 61.9394 37.2766Z" fill="#F94735"/>
<path fill-rule="evenodd" clip-rule="evenodd" d="M64.351 34.5291C63.6122 33.5859 59.4487 34.0834 57.58 34.3041C57.0106 34.3734 56.9237 33.8801 57.4365 33.5253C60.7525 31.202 66.1937 31.8726 66.8282 32.6514C67.4627 33.4345 66.6631 38.8642 63.547 41.4557C63.0689 41.8538 62.6126 41.6418 62.8255 41.114C63.5253 39.3747 65.0942 35.4765 64.351 34.5291Z" fill="#F94735"/>
<path fill-rule="evenodd" clip-rule="evenodd" d="M57.7108 17.124V14.8656C57.7108 14.5237 57.9716 14.2944 58.2845 14.2944H68.441C68.7671 14.2944 69.0278 14.5281 69.0278 14.8656V16.7995C69.0234 17.124 68.7496 17.548 68.2629 18.2186L62.9999 25.699C64.9556 25.6514 67.02 25.9413 68.7931 26.9365C69.1929 27.1614 69.3016 27.4902 69.332 27.8147V30.2245C69.332 30.5534 68.967 30.9384 68.5845 30.7394C65.4597 29.1083 61.3093 28.9309 57.8542 30.7567C57.5022 30.9471 57.1328 30.5664 57.1328 30.2375V27.9489C57.1328 27.5811 57.1372 26.9537 57.5065 26.3956L63.604 17.6907H58.2975C57.9716 17.6907 57.7108 17.4614 57.7108 17.124Z" fill="#F94735"/>
<path fill-rule="evenodd" clip-rule="evenodd" d="M20.6615 31.2151H17.5715C17.276 31.1934 17.0413 30.9728 17.0195 30.6916V14.9042C17.0195 14.5885 17.2847 14.3375 17.615 14.3375H20.4963C20.7963 14.3505 21.0353 14.5798 21.0571 14.8653V16.9291H21.1135C21.8654 14.9346 23.2778 14.0044 25.1814 14.0044C27.1154 14.0044 28.3235 14.9346 29.1927 16.9291C29.9402 14.9346 31.6395 14.0044 33.4605 14.0044C34.7556 14.0044 36.1724 14.5365 37.0372 15.7306C38.0151 17.0588 37.8152 18.9885 37.8152 20.6801L37.8109 30.6439C37.8109 30.9598 37.5457 31.2151 37.2155 31.2151H34.1298C33.8212 31.1934 33.5735 30.9469 33.5735 30.6439V22.2766C33.5735 21.6103 33.6343 19.9489 33.4866 19.3172C33.2563 18.2573 32.5652 17.9587 31.67 17.9587C30.9225 17.9587 30.1401 18.4563 29.8229 19.2524C29.5056 20.0485 29.5361 21.381 29.5361 22.2766V30.6439C29.5361 30.9598 29.2709 31.2151 28.9407 31.2151H25.855C25.5421 31.1934 25.2987 30.9469 25.2987 30.6439L25.2944 22.2766C25.2944 20.5157 25.5855 17.9241 23.3909 17.9241C21.17 17.9241 21.257 20.4508 21.257 22.2766V30.6439C21.257 30.9598 20.9917 31.2151 20.6615 31.2151Z" fill="#F94735"/>
<path fill-rule="evenodd" clip-rule="evenodd" d="M77.772 14.0044C82.357 14.0044 84.8385 17.9241 84.8385 22.9082C84.8385 27.7236 82.0962 31.5439 77.772 31.5439C73.2695 31.5439 70.8184 27.6241 70.8184 22.7395C70.8184 17.8247 73.3 14.0044 77.772 14.0044ZM77.7981 17.2276C75.5208 17.2276 75.3773 20.3167 75.3773 22.242C75.3773 24.1716 75.3469 28.2904 77.772 28.2904C80.1666 28.2904 80.2796 24.9677 80.2796 22.9429C80.2796 21.6103 80.2231 20.0181 79.819 18.7548C79.4713 17.6559 78.7802 17.2276 77.7981 17.2276Z" fill="#F94735"/>
<path fill-rule="evenodd" clip-rule="evenodd" d="M90.784 31.2151H87.7071C87.3985 31.1934 87.1508 30.9469 87.1508 30.6439L87.1465 14.8524C87.1726 14.5624 87.429 14.3375 87.7419 14.3375H90.6062C90.8752 14.3505 91.0973 14.5322 91.1575 14.7788V17.193H91.2141C92.0796 15.034 93.292 14.0044 95.4256 14.0044C96.8124 14.0044 98.1637 14.5019 99.0327 15.8647C99.8416 17.128 99.8416 19.2524 99.8416 20.7796V30.7175C99.8062 30.9944 99.5504 31.2151 99.246 31.2151H96.1469C95.8646 31.1934 95.6301 30.9858 95.5991 30.7175V22.1424C95.5991 20.4162 95.7991 17.8895 93.6655 17.8895C92.9132 17.8895 92.223 18.3914 91.8796 19.1529C91.4451 20.1177 91.3885 21.0781 91.3885 22.1424V30.6439C91.384 30.9598 91.1141 31.2151 90.784 31.2151Z" fill="#F94735"/>
<path fill-rule="evenodd" clip-rule="evenodd" d="M49.6146 23.6741C49.6146 24.8725 49.6451 25.872 49.0366 26.9362C48.5455 27.8015 47.7632 28.3337 46.8984 28.3337C45.7119 28.3337 45.0166 27.4338 45.0166 26.1056C45.0166 23.4837 47.3764 23.0078 49.6146 23.0078V23.6741ZM52.7308 31.1719C52.5265 31.3536 52.2309 31.3666 52.0006 31.2454C50.9749 30.3974 50.7881 30.0037 50.2275 29.1947C48.5325 30.9166 47.3286 31.4314 45.1339 31.4314C42.5307 31.4314 40.5098 29.835 40.5098 26.6377C40.5098 24.1413 41.8657 22.4411 43.804 21.6104C45.4816 20.8749 47.8241 20.7451 49.6146 20.5417V20.1436C49.6146 19.4125 49.6711 18.5472 49.2365 17.9155C48.8628 17.3488 48.1414 17.1152 47.5025 17.1152C46.3247 17.1152 45.2773 17.7166 45.0209 18.9626C44.9688 19.2395 44.7645 19.5121 44.482 19.525L41.4876 19.2048C41.2355 19.1486 40.953 18.9452 41.0269 18.5602C41.7136 14.9433 44.9992 13.853 47.9371 13.853C49.4408 13.853 51.4052 14.251 52.5916 15.3845C54.0954 16.782 53.952 18.6467 53.952 20.6759V25.4696C53.952 26.9103 54.5517 27.542 55.1167 28.3207C55.3123 28.5976 55.3557 28.9307 55.1037 29.1384C54.4735 29.662 53.3522 30.6354 52.7351 31.1805L52.7308 31.1719Z" fill="#F94735"/>
<path fill-rule="evenodd" clip-rule="evenodd" d="M9.10487 23.6741C9.10487 24.8726 9.13531 25.872 8.52686 26.9363C8.03575 27.8016 7.25782 28.3337 6.38862 28.3337C5.20216 28.3337 4.51115 27.4338 4.51115 26.1056C4.51115 23.4837 6.87103 23.0078 9.10487 23.0078V23.6741ZM12.221 31.1719C12.0167 31.3536 11.7212 31.3666 11.4908 31.2454C10.4651 30.3975 10.2827 30.0037 9.7177 29.1947C8.02272 30.9167 6.82322 31.4315 4.62414 31.4315C2.02523 31.4315 0 29.8351 0 26.6378C0 24.1413 1.3603 22.4411 3.29427 21.6104C4.97182 20.8749 7.31432 20.7451 9.10487 20.5418V20.1437C9.10487 19.4126 9.16142 18.5473 8.73112 17.9156C8.35302 17.3488 7.63158 17.1152 6.99706 17.1152C5.8193 17.1152 4.76757 17.7166 4.51115 18.9626C4.459 19.2395 4.25473 19.5121 3.97659 19.5251L0.97785 19.2049C0.725782 19.1486 0.447637 18.9453 0.517174 18.5602C1.20819 14.9433 4.48942 13.853 7.42732 13.853C8.93106 13.853 10.8954 14.2511 12.0819 15.3846C13.5856 16.7821 13.4422 18.6467 13.4422 20.6759V25.4696C13.4422 26.9104 14.0419 27.542 14.6069 28.3207C14.8068 28.5976 14.8503 28.9308 14.5982 29.1384C13.9681 29.662 12.8468 30.6354 12.2296 31.1805L12.221 31.1719Z" fill="#F94735"/>
</g>
</svg>
