<svg width="188" height="79" viewBox="0 0 188 79" fill="none" xmlns="http://www.w3.org/2000/svg">
<path d="M59.1156 26.0692L66.5278 39.1783L59.1156 52.2403C58.847 52.7198 58.4563 53.1196 57.9832 53.399C57.5101 53.6785 56.9714 53.8277 56.4219 53.8315H43.399C42.8494 53.8279 42.3106 53.6789 41.8373 53.3996C41.364 53.1203 40.9731 52.7207 40.7043 52.2413L39.7251 50.5141H56.3543L54.5066 47.2652H37.8774L36.0297 44.0173H52.6589L50.8338 40.7684H34.2036L33.291 39.1783L34.2261 37.497H50.8563L52.704 34.2482H36.0738L37.9215 30.9768H54.5517L56.3993 27.7279H39.7692L40.7043 26.0692C40.973 25.59 41.3638 25.1904 41.8369 24.9112C42.31 24.6319 42.8486 24.4828 43.398 24.479H56.4209C56.9704 24.4827 57.5092 24.6318 57.9825 24.911C58.4557 25.1903 58.8467 25.5899 59.1156 26.0692ZM74.8547 38.3146C74.8547 32.8401 78.3728 29.0458 83.4263 29.0458C85.3846 29.0458 87.1667 29.5912 88.5904 30.681V34.112C87.0766 32.658 85.3631 31.9314 83.5154 31.9314C80.0864 31.9314 77.8823 34.3852 77.8823 38.3156C77.8823 42.1774 80.0864 44.6998 83.5144 44.6998C85.3631 44.6998 87.0541 43.9723 88.5904 42.5182V45.9482C87.1657 47.039 85.3846 47.5834 83.4253 47.5834C78.3728 47.5834 74.8547 43.7901 74.8547 38.3146Z" fill="#0F313A"/>
<path fill-rule="evenodd" clip-rule="evenodd" d="M93.8911 41.6762C94.1575 43.9028 95.5165 44.9926 97.8979 44.9926C99.4783 44.9926 100.925 44.5618 102.061 43.7657V46.4242C100.903 47.1742 99.4117 47.5825 97.8088 47.5825C93.6904 47.5825 91.1309 44.9926 91.1309 40.8586C91.1309 36.7921 93.5788 33.9976 97.1625 33.9976C100.502 33.9976 102.751 36.5875 102.751 40.5178V41.6762H93.8911ZM93.9577 39.4496H100.079C99.8787 37.5186 98.877 36.5189 97.185 36.5189C95.449 36.4964 94.2916 37.5637 93.9577 39.4496Z" fill="#0F313A"/>
<path d="M116.487 47.3103V38.7455C116.487 35.8825 114.772 33.9966 112.122 33.9966C110.475 33.9966 109.14 34.7701 108.294 36.1556V34.2698H105.689V47.3103H108.494V38.5174C109.028 37.3816 110.119 36.6775 111.321 36.6775C112.769 36.6775 113.681 37.6547 113.681 39.2909V47.3103H116.487ZM119.202 46.4242V43.516C120.516 44.5618 122.051 45.0612 123.855 45.0612C125.547 45.0612 126.348 44.6068 126.348 43.6521C126.348 42.9031 125.903 42.4478 124.901 42.2216L122.498 41.6762C120.449 41.1993 119.357 39.9264 119.357 38.018C119.357 35.5417 121.317 33.9976 124.523 33.9976C126.104 33.9976 127.484 34.3383 128.485 34.9738V37.8819C127.373 36.9507 126.037 36.4739 124.478 36.4739C122.897 36.4739 122.074 36.9732 122.074 37.9044C122.074 38.5869 122.519 39.0177 123.409 39.1999L125.814 39.7678C127.973 40.2907 129.109 41.5176 129.109 43.426C129.109 45.9924 127.061 47.5375 123.744 47.5375C121.985 47.5825 120.449 47.1742 119.202 46.4242ZM142.244 34.2707H139.461V42.9951C138.949 44.176 137.903 44.88 136.7 44.88C135.276 44.88 134.341 43.8813 134.341 42.2676V34.2707H131.535V42.8355C131.535 45.6526 133.294 47.561 135.877 47.561C137.545 47.561 138.86 46.7659 139.706 45.3344V47.2888H142.244V34.2707ZM145.249 46.4242V43.516C146.563 44.5618 148.098 45.0612 149.902 45.0612C151.594 45.0612 152.395 44.6068 152.395 43.6521C152.395 42.9031 151.95 42.4478 150.947 42.2216L148.544 41.6762C146.496 41.1993 145.404 39.9264 145.404 38.018C145.404 35.5417 147.364 33.9976 150.569 33.9976C152.151 33.9976 153.531 34.3383 154.532 34.9738V37.8819C153.42 36.9507 152.084 36.4739 150.525 36.4739C148.944 36.4739 148.12 36.9732 148.12 37.9044C148.12 38.5869 148.566 39.0177 149.457 39.1999L151.861 39.7678C154.02 40.2907 155.156 41.5176 155.156 43.426C155.156 45.9924 153.107 47.5375 149.791 47.5375C148.01 47.5825 146.496 47.1742 145.249 46.4242Z" fill="#0F313A"/>
</svg>
