<svg width="166" height="32" viewBox="0 0 166 32" fill="none" xmlns="http://www.w3.org/2000/svg">
<path d="M0.0632533 11.652L0.126507 23.194L0.800534 24.6261C1.97958 27.0904 4.31742 28.986 6.99278 29.5968C7.51905 29.7233 11.2682 29.828 15.8806 29.828H23.8212V8.97719H17.9235V23.9308H13.1425C7.77206 23.9308 7.30854 23.8255 6.40275 22.4775L5.91848 21.7614V0.131348H0L0.0632533 11.652Z" fill="#0F313A"/>
<path d="M8.86713 10.4308V20.7719H14.7644V13.5479C14.7644 9.58823 14.8489 6.21809 14.9541 6.07084C15.1014 5.83908 16.0704 5.79708 19.8403 5.86033C23.8632 5.92308 24.6632 5.98684 25.232 6.3026C26.7066 7.10262 26.6433 6.59761 26.7698 18.7711L26.8751 29.723H32.7723L32.8356 19.4031C32.8568 13.3156 32.7931 8.51393 32.6878 7.7139C32.2455 4.82804 30.308 2.23769 27.6331 0.910886L26.2431 0.236858L17.5657 0.173605L8.86713 0.110352V10.4308Z" fill="#6D6B6B"/>
<path d="M35.3362 5.48301C35.3782 10.5812 35.3918 10.8312 35.6702 11.4425C36.1144 12.4009 36.8644 13.1508 37.7955 13.5678L38.6152 13.9291L42.4904 13.9008L46.3524 13.8593V0.245637L45.0048 0.203638L43.6436 0.162143V11.1495H41.3376C40.0321 11.1495 38.9204 11.0943 38.7675 11.0108C38.1148 10.6637 38.0869 10.3717 38.0869 5.10703V0.1753H35.2947L35.3362 5.48301ZM47.8112 7.05271V13.9291H50.4502L50.478 8.46907L50.5195 3.02423L52.8533 2.98223L55.1871 2.9544L55.6035 3.35719L56.0068 3.75999V13.9286H58.7849V8.81671C58.7849 4.67691 58.7434 3.56568 58.5764 2.99589C58.285 2.03748 57.4095 1.06489 56.354 0.579109L55.5205 0.175806H47.8107L47.8112 7.05271ZM60.174 8.63454V13.9291H62.9526V3.33999H60.1735L60.174 8.63454ZM64.3416 5.37169C64.3416 11.4976 64.3558 11.609 65.6472 12.7759C66.7589 13.7899 67.3003 13.9291 70.1483 13.9291H72.5377V11.1505H67.9258L67.523 10.7477L67.1197 10.3449V5.73299H72.5377V2.9544H67.1339L67.0924 1.59319L67.0504 0.245637L65.7028 0.204144L64.3416 0.162143V5.37169ZM92.5829 14.3749H89.772V0.319518H97.5025C98.9472 0.404024 100.393 0.487012 100.263 2.47519L100.314 5.2386H97.5025V4.53623C97.5293 2.93466 96.788 3.19729 96.0968 3.13049H92.5829V14.3749ZM109.184 4.32269C109.288 3.48623 109 2.90126 107.778 2.91695H105.67C104.507 2.85117 104.196 3.44069 104.265 4.32269V9.94465C104.248 10.9845 104.887 11.2522 105.67 11.3504H107.778C108.408 11.2153 109.146 11.3069 109.184 9.94465V4.32269ZM109.184 14.1614H104.265C102.686 14.1077 101.519 13.4858 101.454 11.3504V2.91645C101.519 1.50413 101.642 0.12318 104.265 0.105469H109.184C111.081 0.24665 112.047 1.15902 111.995 2.91645V11.3499C111.893 12.9231 111.272 14.1011 109.184 14.1614ZM113.054 5.66063C113.095 10.6915 113.109 10.9385 113.383 11.5412C113.822 12.4874 114.562 13.2272 115.481 13.6386L116.289 13.9949L120.114 13.9676L123.924 13.9266V0.492579L122.595 0.451084L121.251 0.410602V11.2527H118.976C117.687 11.2527 116.591 11.1981 116.44 11.1161C115.796 10.773 115.769 10.4851 115.769 5.29022V0.423759H113.013L113.054 5.66063ZM77.5656 8.69527C77.6066 3.66486 77.6202 3.41792 77.8945 2.81524C78.3332 1.86897 79.0735 1.12865 79.992 0.717254L80.8006 0.361012L84.6252 0.388338L88.4355 0.429831V7.14632L88.4391 20.8439L86.3436 20.8333L85.7627 13.9453V3.10266H83.4871C82.1988 3.10266 81.1022 3.15731 80.9514 3.23929C80.3072 3.58238 80.2799 3.87031 80.2799 9.06568V13.9316H77.5246L77.5656 8.69527Z" fill="#0F313A"/>
<path d="M77.5246 11.1505H85.8503V13.9317H77.5246V11.1505ZM135.803 8.81472C135.763 3.78381 135.749 3.53687 135.474 2.93419C135.036 1.98792 134.295 1.24811 133.377 0.836712L132.568 0.480469L128.744 0.507795L124.933 0.548782V7.26578L124.93 20.9629L127.025 20.9528L127.606 14.0647V3.22212H129.882C131.17 3.22212 132.267 3.27677 132.417 3.35875C133.062 3.70183 133.089 3.98925 133.089 9.18463V14.0511H135.845L135.803 8.81472Z" fill="#0F313A"/>
<path d="M135.845 11.27H127.519V14.0511H135.845V11.27ZM86.3437 20.8334L83.5175 20.8481C83.2589 20.8506 83.018 20.7707 82.8759 20.3846V19.0831L86.2809 19.1008L86.3437 20.8334Z" fill="#0F313A"/>
<path d="M62.9538 2.63226H60.1736V0.00749691C60.1736 0.00749691 61.8218 -0.105853 62.4771 0.548945C63.0954 1.16782 62.9527 2.63226 62.9527 2.63226H62.9538Z" fill="#6D6B6B"/>
<path d="M163.246 30.0929C162.756 30.0929 162.333 29.9847 161.978 29.7683C161.625 29.5497 161.352 29.245 161.16 28.8542C160.97 28.4612 160.875 28.0041 160.875 27.4831C160.875 26.962 160.97 26.5027 161.16 26.1053C161.352 25.7056 161.619 25.3943 161.961 25.1713C162.306 24.9461 162.708 24.8335 163.167 24.8335C163.432 24.8335 163.694 24.8777 163.952 24.966C164.21 25.0543 164.445 25.1978 164.657 25.3965C164.869 25.593 165.038 25.8536 165.164 26.1781C165.29 26.5027 165.353 26.9024 165.353 27.3771V27.7083H161.432V27.0326H164.558C164.558 26.7456 164.501 26.4895 164.386 26.2643C164.273 26.039 164.112 25.8613 163.902 25.731C163.695 25.6008 163.45 25.5356 163.167 25.5356C162.856 25.5356 162.586 25.6129 162.359 25.7675C162.134 25.9198 161.96 26.1185 161.839 26.3636C161.717 26.6087 161.657 26.8714 161.657 27.1519V27.6023C161.657 27.9865 161.723 28.3121 161.855 28.5793C161.99 28.8443 162.177 29.0463 162.415 29.1854C162.654 29.3223 162.931 29.3907 163.246 29.3907C163.452 29.3907 163.637 29.362 163.803 29.3046C163.971 29.245 164.115 29.1567 164.237 29.0397C164.358 28.9204 164.452 28.7725 164.518 28.5959L165.273 28.8078C165.194 29.064 165.06 29.2892 164.873 29.4835C164.685 29.6756 164.453 29.8257 164.177 29.9339C163.901 30.0399 163.591 30.0929 163.246 30.0929Z" fill="#0F313A"/>
<path d="M157.971 30.0929C157.494 30.0929 157.083 29.9803 156.738 29.755C156.394 29.5298 156.129 29.2196 155.944 28.8244C155.758 28.4292 155.665 27.9776 155.665 27.4698C155.665 26.9531 155.76 26.4972 155.95 26.102C156.142 25.7045 156.409 25.3943 156.752 25.1713C157.096 24.9461 157.498 24.8335 157.957 24.8335C158.315 24.8335 158.637 24.8997 158.924 25.0322C159.211 25.1647 159.447 25.3502 159.63 25.5886C159.813 25.8271 159.927 26.1053 159.971 26.4232H159.189C159.13 26.1914 158.997 25.9861 158.792 25.8072C158.589 25.6262 158.315 25.5356 157.971 25.5356C157.666 25.5356 157.399 25.6151 157.169 25.7741C156.942 25.9309 156.764 26.1528 156.636 26.4398C156.51 26.7246 156.447 27.0591 156.447 27.4433C156.447 27.8363 156.509 28.1786 156.632 28.47C156.758 28.7615 156.935 28.9878 157.162 29.149C157.392 29.3101 157.661 29.3907 157.971 29.3907C158.174 29.3907 158.358 29.3554 158.524 29.2847C158.689 29.2141 158.829 29.1125 158.944 28.9801C159.059 28.8476 159.141 28.6886 159.189 28.5031H159.971C159.927 28.8034 159.817 29.0739 159.643 29.3146C159.471 29.553 159.242 29.7429 158.957 29.8842C158.675 30.0233 158.346 30.0929 157.971 30.0929Z" fill="#0F313A"/>
<path d="M151.23 26.9266V29.9869H150.448V24.8997H151.203V25.6946H151.27C151.389 25.4363 151.57 25.2287 151.813 25.072C152.056 24.913 152.369 24.8335 152.753 24.8335C153.098 24.8335 153.399 24.9042 153.658 25.0455C153.916 25.1846 154.117 25.3965 154.26 25.6814C154.404 25.964 154.476 26.3217 154.476 26.7544V29.9869H153.694V26.8074C153.694 26.4078 153.59 26.0965 153.383 25.8734C153.175 25.6482 152.89 25.5356 152.528 25.5356C152.279 25.5356 152.056 25.5897 151.859 25.6979C151.665 25.8061 151.511 25.964 151.399 26.1715C151.286 26.3791 151.23 26.6308 151.23 26.9266Z" fill="#0F313A"/>
<path d="M147.153 30.0929C146.663 30.0929 146.24 29.9847 145.884 29.7683C145.531 29.5497 145.258 29.245 145.066 28.8542C144.877 28.4612 144.782 28.0041 144.782 27.4831C144.782 26.962 144.877 26.5027 145.066 26.1053C145.258 25.7056 145.526 25.3943 145.868 25.1713C146.212 24.9461 146.614 24.8335 147.073 24.8335C147.338 24.8335 147.6 24.8777 147.858 24.966C148.117 25.0543 148.352 25.1978 148.564 25.3965C148.776 25.593 148.945 25.8536 149.071 26.1781C149.196 26.5027 149.259 26.9024 149.259 27.3771V27.7083H145.338V27.0326H148.464C148.464 26.7456 148.407 26.4895 148.292 26.2643C148.18 26.039 148.018 25.8613 147.809 25.731C147.601 25.6008 147.356 25.5356 147.073 25.5356C146.762 25.5356 146.493 25.6129 146.265 25.7675C146.04 25.9198 145.867 26.1185 145.745 26.3636C145.624 26.6087 145.563 26.8714 145.563 27.1519V27.6023C145.563 27.9865 145.629 28.3121 145.762 28.5793C145.897 28.8443 146.083 29.0463 146.322 29.1854C146.56 29.3223 146.837 29.3907 147.153 29.3907C147.358 29.3907 147.544 29.362 147.709 29.3046C147.877 29.245 148.022 29.1567 148.143 29.0397C148.265 28.9204 148.358 28.7725 148.425 28.5959L149.18 28.8078C149.1 29.064 148.967 29.2892 148.779 29.4835C148.591 29.6756 148.36 29.8257 148.084 29.9339C147.808 30.0399 147.497 30.0929 147.153 30.0929Z" fill="#0F313A"/>
<path d="M141.39 32.0005C141.013 32.0005 140.688 31.952 140.416 31.8548C140.145 31.7599 139.919 31.634 139.737 31.4773C139.559 31.3227 139.416 31.1571 139.31 30.9805L139.933 30.5433C140.004 30.636 140.093 30.742 140.201 30.8612C140.309 30.9827 140.457 31.0875 140.645 31.1759C140.835 31.2664 141.083 31.3117 141.39 31.3117C141.801 31.3117 142.14 31.2123 142.407 31.0136C142.674 30.8149 142.808 30.5035 142.808 30.0796V29.0463H142.741C142.684 29.139 142.602 29.2538 142.496 29.3907C142.393 29.5254 142.242 29.6458 142.046 29.7517C141.852 29.8555 141.589 29.9074 141.258 29.9074C140.847 29.9074 140.478 29.8102 140.151 29.6159C139.827 29.4216 139.57 29.139 139.38 28.7681C139.192 28.3971 139.098 27.9467 139.098 27.4168C139.098 26.8957 139.19 26.442 139.373 26.0556C139.556 25.667 139.811 25.3667 140.138 25.1548C140.465 24.9406 140.843 24.8335 141.271 24.8335C141.602 24.8335 141.865 24.8887 142.059 24.9991C142.256 25.1073 142.406 25.2309 142.51 25.37C142.616 25.5069 142.697 25.6195 142.755 25.7078H142.834V24.8997H143.589V30.1326C143.589 30.5698 143.49 30.9253 143.291 31.1991C143.095 31.475 142.83 31.6771 142.496 31.8051C142.165 31.9354 141.796 32.0005 141.39 32.0005ZM141.364 29.2053C141.677 29.2053 141.942 29.1335 142.158 28.99C142.375 28.8465 142.539 28.64 142.652 28.3707C142.765 28.1013 142.821 27.7789 142.821 27.4036C142.821 27.037 142.766 26.7136 142.655 26.4332C142.545 26.1528 142.382 25.9331 142.165 25.7741C141.949 25.6151 141.682 25.5356 141.364 25.5356C141.032 25.5356 140.756 25.6195 140.536 25.7873C140.317 25.9551 140.153 26.1804 140.042 26.463C139.934 26.7456 139.88 27.0591 139.88 27.4036C139.88 27.7568 139.935 28.0693 140.045 28.3408C140.158 28.6102 140.324 28.8222 140.542 28.9767C140.763 29.1291 141.037 29.2053 141.364 29.2053Z" fill="#0F313A"/>
<path d="M137.124 29.987V24.8999H137.905V29.987H137.124ZM137.521 24.052C137.369 24.052 137.237 24.0001 137.127 23.8963C137.019 23.7926 136.965 23.6678 136.965 23.5221C136.965 23.3764 137.019 23.2516 137.127 23.1478C137.237 23.0441 137.369 22.9922 137.521 22.9922C137.673 22.9922 137.804 23.0441 137.912 23.1478C138.022 23.2516 138.077 23.3764 138.077 23.5221C138.077 23.6678 138.022 23.7926 137.912 23.8963C137.804 24.0001 137.673 24.052 137.521 24.052Z" fill="#0F313A"/>
<path d="M135.692 23.2041V29.987H134.91V23.2041H135.692Z" fill="#0F313A"/>
<path d="M133.479 23.2041V29.987H132.697V23.2041H133.479Z" fill="#0F313A"/>
<path d="M129.402 30.0929C128.912 30.0929 128.489 29.9847 128.133 29.7683C127.78 29.5497 127.507 29.245 127.315 28.8542C127.125 28.4612 127.03 28.0041 127.03 27.4831C127.03 26.962 127.125 26.5027 127.315 26.1053C127.507 25.7056 127.774 25.3943 128.117 25.1713C128.461 24.9461 128.863 24.8335 129.322 24.8335C129.587 24.8335 129.849 24.8777 130.107 24.966C130.366 25.0543 130.601 25.1978 130.813 25.3965C131.025 25.593 131.194 25.8536 131.319 26.1781C131.445 26.5027 131.508 26.9024 131.508 27.3771V27.7083H127.587V27.0326H130.713C130.713 26.7456 130.656 26.4895 130.541 26.2643C130.428 26.039 130.267 25.8613 130.058 25.731C129.85 25.6008 129.605 25.5356 129.322 25.5356C129.011 25.5356 128.742 25.6129 128.514 25.7675C128.289 25.9198 128.116 26.1185 127.994 26.3636C127.873 26.6087 127.812 26.8714 127.812 27.1519V27.6023C127.812 27.9865 127.878 28.3121 128.011 28.5793C128.145 28.8443 128.332 29.0463 128.57 29.1854C128.809 29.3223 129.086 29.3907 129.402 29.3907C129.607 29.3907 129.793 29.362 129.958 29.3046C130.126 29.245 130.271 29.1567 130.392 29.0397C130.513 28.9204 130.607 28.7725 130.674 28.5959L131.429 28.8078C131.349 29.064 131.216 29.2892 131.028 29.4835C130.84 29.6756 130.608 29.8257 130.332 29.9339C130.056 30.0399 129.746 30.0929 129.402 30.0929Z" fill="#0F313A"/>
<path d="M126.148 24.8995V25.5618H123.511V24.8995H126.148ZM124.28 23.6807H125.061V28.5293C125.061 28.7501 125.093 28.9157 125.157 29.0261C125.224 29.1343 125.308 29.2072 125.409 29.2447C125.513 29.2801 125.622 29.2977 125.737 29.2977C125.823 29.2977 125.894 29.2933 125.949 29.2845C126.004 29.2734 126.048 29.2646 126.081 29.258L126.24 29.9601C126.187 29.98 126.113 29.9999 126.019 30.0197C125.924 30.0418 125.803 30.0528 125.658 30.0528C125.437 30.0528 125.22 30.0054 125.008 29.9104C124.799 29.8155 124.624 29.6709 124.485 29.4766C124.348 29.2823 124.28 29.0372 124.28 28.7413V23.6807Z" fill="#0F313A"/>
<path d="M119.261 26.9266V29.9869H118.48V24.8997H119.235V25.6946H119.301C119.42 25.4363 119.601 25.2287 119.844 25.072C120.087 24.913 120.401 24.8335 120.785 24.8335C121.129 24.8335 121.431 24.9042 121.689 25.0455C121.947 25.1846 122.148 25.3965 122.292 25.6814C122.435 25.964 122.507 26.3217 122.507 26.7544V29.9869H121.726V26.8074C121.726 26.4078 121.622 26.0965 121.414 25.8734C121.207 25.6482 120.922 25.5356 120.56 25.5356C120.31 25.5356 120.087 25.5897 119.891 25.6979C119.696 25.8061 119.543 25.964 119.43 26.1715C119.318 26.3791 119.261 26.6308 119.261 26.9266Z" fill="#0F313A"/>
<path d="M116.267 29.987V24.8999H117.048V29.987H116.267ZM116.664 24.052C116.512 24.052 116.38 24.0001 116.27 23.8963C116.162 23.7926 116.108 23.6678 116.108 23.5221C116.108 23.3764 116.162 23.2516 116.27 23.1478C116.38 23.0441 116.512 22.9922 116.664 22.9922C116.816 22.9922 116.947 23.0441 117.055 23.1478C117.165 23.2516 117.22 23.3764 117.22 23.5221C117.22 23.6678 117.165 23.7926 117.055 23.8963C116.947 24.0001 116.816 24.052 116.664 24.052Z" fill="#0F313A"/>
<path d="M112.374 26.039L111.672 26.2378C111.628 26.1207 111.563 26.007 111.477 25.8966C111.393 25.784 111.278 25.6913 111.132 25.6184C110.986 25.5456 110.8 25.5091 110.572 25.5091C110.261 25.5091 110.002 25.5809 109.794 25.7244C109.589 25.8657 109.486 26.0457 109.486 26.2643C109.486 26.4586 109.557 26.612 109.698 26.7246C109.839 26.8372 110.06 26.9311 110.36 27.0061L111.116 27.1916C111.57 27.302 111.909 27.4709 112.132 27.6983C112.355 27.9235 112.467 28.2139 112.467 28.5694C112.467 28.8608 112.383 29.1214 112.215 29.351C112.05 29.5806 111.818 29.7617 111.52 29.8941C111.222 30.0266 110.875 30.0929 110.48 30.0929C109.961 30.0929 109.531 29.9803 109.191 29.755C108.851 29.5298 108.636 29.2008 108.546 28.7681L109.287 28.5826C109.358 28.8564 109.492 29.0617 109.688 29.1986C109.887 29.3355 110.146 29.404 110.466 29.404C110.831 29.404 111.12 29.3267 111.334 29.1721C111.551 29.0154 111.659 28.8277 111.659 28.6091C111.659 28.4325 111.597 28.2845 111.473 28.1653C111.35 28.0439 111.16 27.9533 110.904 27.8937L110.056 27.695C109.59 27.5846 109.248 27.4135 109.029 27.1817C108.813 26.9476 108.705 26.6551 108.705 26.304C108.705 26.017 108.785 25.763 108.946 25.5423C109.11 25.3215 109.332 25.1481 109.612 25.0223C109.895 24.8964 110.215 24.8335 110.572 24.8335C111.076 24.8335 111.471 24.9439 111.758 25.1647C112.047 25.3855 112.253 25.6769 112.374 26.039Z" fill="#0F313A"/>
<path d="M105.628 30.0929C105.151 30.0929 104.74 29.9803 104.396 29.755C104.051 29.5298 103.786 29.2196 103.601 28.8244C103.415 28.4292 103.323 27.9776 103.323 27.4698C103.323 26.9531 103.418 26.4972 103.607 26.102C103.8 25.7045 104.067 25.3943 104.409 25.1713C104.753 24.9461 105.155 24.8335 105.614 24.8335C105.972 24.8335 106.295 24.8997 106.582 25.0322C106.869 25.1647 107.104 25.3502 107.287 25.5886C107.47 25.8271 107.584 26.1053 107.628 26.4232H106.847C106.787 26.1914 106.654 25.9861 106.449 25.8072C106.246 25.6262 105.972 25.5356 105.628 25.5356C105.323 25.5356 105.056 25.6151 104.826 25.7741C104.599 25.9309 104.421 26.1528 104.293 26.4398C104.167 26.7246 104.104 27.0591 104.104 27.4433C104.104 27.8363 104.166 28.1786 104.29 28.47C104.416 28.7615 104.592 28.9878 104.82 29.149C105.049 29.3101 105.319 29.3907 105.628 29.3907C105.831 29.3907 106.015 29.3554 106.181 29.2847C106.346 29.2141 106.487 29.1125 106.601 28.9801C106.716 28.8476 106.798 28.6886 106.847 28.5031H107.628C107.584 28.8034 107.475 29.0739 107.3 29.3146C107.128 29.553 106.9 29.7429 106.615 29.8842C106.332 30.0233 106.003 30.0929 105.628 30.0929Z" fill="#0F313A"/>
<path d="M101.348 29.987V24.8999H102.129V29.987H101.348ZM101.745 24.052C101.593 24.052 101.462 24.0001 101.351 23.8963C101.243 23.7926 101.189 23.6678 101.189 23.5221C101.189 23.3764 101.243 23.2516 101.351 23.1478C101.462 23.0441 101.593 22.9922 101.745 22.9922C101.898 22.9922 102.028 23.0441 102.136 23.1478C102.247 23.2516 102.302 23.3764 102.302 23.5221C102.302 23.6678 102.247 23.7926 102.136 23.8963C102.028 24.0001 101.898 24.052 101.745 24.052Z" fill="#0F313A"/>
<path d="M100.172 24.8995V25.5618H97.5358V24.8995H100.172ZM98.3042 23.6807H99.0858V28.5293C99.0858 28.7501 99.1178 28.9157 99.1819 29.0261C99.2481 29.1343 99.332 29.2072 99.4336 29.2447C99.5373 29.2801 99.6466 29.2977 99.7615 29.2977C99.8476 29.2977 99.9182 29.2933 99.9734 29.2845C100.029 29.2734 100.073 29.2646 100.106 29.258L100.265 29.9601C100.212 29.98 100.138 29.9999 100.043 30.0197C99.948 30.0418 99.8277 30.0528 99.682 30.0528C99.4612 30.0528 99.2448 30.0054 99.0328 29.9104C98.8231 29.8155 98.6486 29.6709 98.5095 29.4766C98.3726 29.2823 98.3042 29.0372 98.3042 28.7413V23.6807Z" fill="#0F313A"/>
<path d="M96.6905 26.039L95.9884 26.2378C95.9442 26.1207 95.8791 26.007 95.7929 25.8966C95.709 25.784 95.5942 25.6913 95.4485 25.6184C95.3028 25.5456 95.1162 25.5091 94.8888 25.5091C94.5775 25.5091 94.318 25.5809 94.1105 25.7244C93.9051 25.8657 93.8025 26.0457 93.8025 26.2643C93.8025 26.4586 93.8731 26.612 94.0144 26.7246C94.1557 26.8372 94.3765 26.9311 94.6768 27.0061L95.4319 27.1916C95.8868 27.302 96.2257 27.4709 96.4487 27.6983C96.6717 27.9235 96.7832 28.2139 96.7832 28.5694C96.7832 28.8608 96.6993 29.1214 96.5315 29.351C96.3659 29.5806 96.1341 29.7617 95.836 29.8941C95.5379 30.0266 95.1913 30.0929 94.7961 30.0929C94.2772 30.0929 93.8477 29.9803 93.5077 29.755C93.1677 29.5298 92.9524 29.2008 92.8619 28.7681L93.6038 28.5826C93.6744 28.8564 93.808 29.0617 94.0045 29.1986C94.2032 29.3355 94.4626 29.404 94.7828 29.404C95.1471 29.404 95.4364 29.3267 95.6505 29.1721C95.8669 29.0154 95.9751 28.8277 95.9751 28.6091C95.9751 28.4325 95.9133 28.2845 95.7896 28.1653C95.666 28.0439 95.4761 27.9533 95.22 27.8937L94.3721 27.695C93.9062 27.5846 93.564 27.4135 93.3454 27.1817C93.129 26.9476 93.0209 26.6551 93.0209 26.304C93.0209 26.017 93.1014 25.763 93.2626 25.5423C93.426 25.3215 93.6479 25.1481 93.9283 25.0223C94.2109 24.8964 94.5311 24.8335 94.8888 24.8335C95.3922 24.8335 95.7874 24.9439 96.0745 25.1647C96.3637 25.3855 96.569 25.6769 96.6905 26.039Z" fill="#0F313A"/>
<path d="M90.8739 29.987V24.8999H91.6555V29.987H90.8739ZM91.2713 24.052C91.119 24.052 90.9876 24.0001 90.8772 23.8963C90.769 23.7926 90.7149 23.6678 90.7149 23.5221C90.7149 23.3764 90.769 23.2516 90.8772 23.1478C90.9876 23.0441 91.119 22.9922 91.2713 22.9922C91.4237 22.9922 91.5539 23.0441 91.6621 23.1478C91.7725 23.2516 91.8277 23.3764 91.8277 23.5221C91.8277 23.6678 91.7725 23.7926 91.6621 23.8963C91.5539 24.0001 91.4237 24.052 91.2713 24.052Z" fill="#0F313A"/>
<path d="M87.244 32.0005C86.8664 32.0005 86.5418 31.952 86.2702 31.8548C85.9987 31.7599 85.7723 31.634 85.5913 31.4773C85.4124 31.3227 85.27 31.1571 85.1641 30.9805L85.7867 30.5433C85.8574 30.636 85.9468 30.742 86.055 30.8612C86.1632 30.9827 86.3111 31.0875 86.4988 31.1759C86.6887 31.2664 86.937 31.3117 87.244 31.3117C87.6546 31.3117 87.9936 31.2123 88.2607 31.0136C88.5279 30.8149 88.6615 30.5035 88.6615 30.0796V29.0463H88.5952C88.5378 29.139 88.4561 29.2538 88.3501 29.3907C88.2464 29.5254 88.0962 29.6458 87.8997 29.7517C87.7054 29.8555 87.4427 29.9074 87.1115 29.9074C86.7008 29.9074 86.3321 29.8102 86.0053 29.6159C85.6807 29.4216 85.4235 29.139 85.2336 28.7681C85.0459 28.3971 84.9521 27.9467 84.9521 27.4168C84.9521 26.8957 85.0437 26.442 85.227 26.0556C85.4102 25.667 85.6653 25.3667 85.992 25.1548C86.3188 24.9406 86.6964 24.8335 87.1247 24.8335C87.4559 24.8335 87.7187 24.8887 87.913 24.9991C88.1095 25.1073 88.2596 25.2309 88.3634 25.37C88.4694 25.5069 88.5511 25.6195 88.6085 25.7078H88.688V24.8997H89.4431V30.1326C89.4431 30.5698 89.3437 30.9253 89.145 31.1991C88.9485 31.475 88.6835 31.6771 88.3501 31.8051C88.0189 31.9354 87.6502 32.0005 87.244 32.0005ZM87.2175 29.2053C87.531 29.2053 87.7959 29.1335 88.0123 28.99C88.2287 28.8465 88.3932 28.64 88.5058 28.3707C88.6184 28.1013 88.6747 27.7789 88.6747 27.4036C88.6747 27.037 88.6195 26.7136 88.5091 26.4332C88.3987 26.1528 88.2353 25.9331 88.0189 25.7741C87.8026 25.6151 87.5354 25.5356 87.2175 25.5356C86.8863 25.5356 86.6103 25.6195 86.3895 25.7873C86.1709 25.9551 86.0064 26.1804 85.896 26.463C85.7878 26.7456 85.7337 27.0591 85.7337 27.4036C85.7337 27.7568 85.7889 28.0693 85.8993 28.3408C86.0119 28.6102 86.1775 28.8222 86.3961 28.9767C86.6169 29.1291 86.8907 29.2053 87.2175 29.2053Z" fill="#0F313A"/>
<path d="M81.6924 30.0929C81.2331 30.0929 80.8302 29.9836 80.4835 29.765C80.1391 29.5464 79.8697 29.2406 79.6754 28.8476C79.4833 28.4546 79.3873 27.9953 79.3873 27.4698C79.3873 26.9399 79.4833 26.4773 79.6754 26.0821C79.8697 25.6869 80.1391 25.38 80.4835 25.1614C80.8302 24.9428 81.2331 24.8335 81.6924 24.8335C82.1516 24.8335 82.5535 24.9428 82.8979 25.1614C83.2446 25.38 83.514 25.6869 83.706 26.0821C83.9003 26.4773 83.9975 26.9399 83.9975 27.4698C83.9975 27.9953 83.9003 28.4546 83.706 28.8476C83.514 29.2406 83.2446 29.5464 82.8979 29.765C82.5535 29.9836 82.1516 30.0929 81.6924 30.0929ZM81.6924 29.3907C82.0412 29.3907 82.3283 29.3013 82.5535 29.1225C82.7787 28.9436 82.9454 28.7085 83.0536 28.417C83.1618 28.1256 83.2159 27.8098 83.2159 27.4698C83.2159 27.1298 83.1618 26.8129 83.0536 26.5193C82.9454 26.2256 82.7787 25.9883 82.5535 25.8072C82.3283 25.6262 82.0412 25.5356 81.6924 25.5356C81.3435 25.5356 81.0565 25.6262 80.8313 25.8072C80.6061 25.9883 80.4394 26.2256 80.3312 26.5193C80.223 26.8129 80.1689 27.1298 80.1689 27.4698C80.1689 27.8098 80.223 28.1256 80.3312 28.417C80.4394 28.7085 80.6061 28.9436 80.8313 29.1225C81.0565 29.3013 81.3435 29.3907 81.6924 29.3907Z" fill="#0F313A"/>
<path d="M78.1941 23.2041V29.987H77.4125V23.2041H78.1941Z" fill="#0F313A"/>
<path d="M140.547 14.0937H137.768V11.4689C137.768 11.4689 139.416 11.3556 140.071 12.0104C140.689 12.6292 140.547 14.0937 140.547 14.0937Z" fill="#6D6B6B"/>
</svg>
