<svg width="166" height="32" viewBox="0 0 166 32" fill="none" xmlns="http://www.w3.org/2000/svg">
<path d="M0.0632533 11.652L0.126507 23.194L0.800534 24.6261C1.97958 27.0904 4.31742 28.986 6.99278 29.5968C7.51905 29.7233 11.2682 29.828 15.8806 29.828H23.8212V8.97719H17.9235V23.9308H13.1425C7.77206 23.9308 7.30854 23.8255 6.40275 22.4775L5.91848 21.7614V0.131348H0L0.0632533 11.652Z" fill="#F94735"/>
<path d="M8.86707 10.4308V20.7719H14.7643V13.5479C14.7643 9.58823 14.8488 6.21809 14.9541 6.07084C15.1013 5.83908 16.0704 5.79708 19.8402 5.86033C23.8632 5.92308 24.6632 5.98684 25.232 6.3026C26.7065 7.10262 26.6433 6.59761 26.7698 18.7711L26.875 29.723H32.7723L32.8355 19.4031C32.8568 13.3156 32.793 8.51393 32.6877 7.7139C32.2455 4.82804 30.3079 2.23769 27.6331 0.910886L26.243 0.236858L17.5657 0.173605L8.86707 0.110352V10.4308Z" fill="#F94735"/>
<path d="M35.3362 5.4835C35.3782 10.5817 35.3918 10.8317 35.6702 11.443C36.1144 12.4014 36.8644 13.1513 37.7955 13.5683L38.6152 13.9296L42.4904 13.9012L46.3524 13.8598V0.246126L45.0048 0.204126L43.6436 0.162632V11.15H41.3376C40.0321 11.15 38.9204 11.0948 38.7675 11.0113C38.1148 10.6642 38.0869 10.3722 38.0869 5.10752V0.175788H35.2947L35.3362 5.4835ZM47.8112 7.05319V13.9296H50.4502L50.478 8.46956L50.5195 3.02472L52.8533 2.98272L55.1871 2.95489L55.6035 3.35768L56.0068 3.76048V13.9291H58.7849V8.8172C58.7849 4.6774 58.7434 3.56617 58.5764 2.99638C58.285 2.03797 57.4095 1.06538 56.354 0.579597L55.5205 0.176295H47.8107L47.8112 7.05319ZM60.174 8.63503V13.9296H62.9526V3.34048H60.1735L60.174 8.63503ZM64.3416 5.37217C64.3416 11.4981 64.3558 11.6095 65.6472 12.7764C66.7589 13.7904 67.3003 13.9296 70.1483 13.9296H72.5377V11.151H67.9258L67.523 10.7482L67.1197 10.3454V5.73348H72.5377V2.95489H67.1339L67.0924 1.59367L67.0504 0.246126L65.7028 0.204632L64.3416 0.162632V5.37217ZM92.5829 14.3754H89.772V0.320006H97.5025C98.9472 0.404513 100.393 0.4875 100.263 2.47568L100.314 5.23909H97.5025V4.53672C97.5293 2.93515 96.788 3.19778 96.0968 3.13098H92.5829V14.3754ZM109.184 4.32318C109.288 3.48672 109 2.90175 107.778 2.91744H105.67C104.507 2.85166 104.196 3.44118 104.265 4.32318V9.94513C104.248 10.985 104.887 11.2527 105.67 11.3509H107.778C108.408 11.2158 109.146 11.3074 109.184 9.94513V4.32318ZM109.184 14.1619H104.265C102.686 14.1082 101.519 13.4863 101.454 11.3509V2.91693C101.519 1.50461 101.642 0.123668 104.265 0.105957H109.184C111.081 0.247138 112.047 1.1595 111.995 2.91693V11.3504C111.893 12.9236 111.272 14.1016 109.184 14.1619ZM113.054 5.66111C113.095 10.692 113.109 10.939 113.383 11.5416C113.822 12.4879 114.562 13.2277 115.481 13.6391L116.289 13.9954L120.114 13.968L123.924 13.9271V0.493067L122.595 0.451572L121.251 0.41109V11.2532H118.976C117.687 11.2532 116.591 11.1986 116.44 11.1166C115.796 10.7735 115.769 10.4856 115.769 5.2907V0.424247H113.013L113.054 5.66111ZM77.5656 8.69575C77.6066 3.66535 77.6202 3.41841 77.8945 2.81573C78.3332 1.86946 79.0735 1.12914 79.992 0.717743L80.8006 0.3615L84.6252 0.388826L88.4355 0.430319V7.14681L88.4391 20.8444L86.3436 20.8338L85.7627 13.9458V3.10315H83.4871C82.1988 3.10315 81.1022 3.1578 80.9514 3.23978C80.3072 3.58286 80.2799 3.87079 80.2799 9.06617V13.9321H77.5246L77.5656 8.69575Z" fill="#F94735"/>
<path d="M77.5247 11.151H85.8503V13.9321H77.5247V11.151ZM135.803 8.81521C135.763 3.7843 135.749 3.53736 135.474 2.93468C135.036 1.98841 134.295 1.2486 133.377 0.8372L132.568 0.480957L128.744 0.508283L124.933 0.549271V7.26626L124.93 20.9634L127.025 20.9533L127.606 14.0652V3.22261H129.882C131.17 3.22261 132.267 3.27726 132.417 3.35924C133.062 3.70232 133.089 3.98974 133.089 9.18512V14.0516H135.845L135.803 8.81521Z" fill="#F94735"/>
<path d="M135.845 11.2705H127.519V14.0516H135.845V11.2705ZM86.3437 20.8339L83.5175 20.8486C83.2589 20.8511 83.018 20.7712 82.8759 20.3851V19.0836L86.2809 19.1013L86.3437 20.8339Z" fill="#F94735"/>
<path d="M62.9537 2.63226H60.1736V0.00749691C60.1736 0.00749691 61.8217 -0.105853 62.477 0.548945C63.0954 1.16782 62.9527 2.63226 62.9527 2.63226H62.9537Z" fill="#F94735"/>
<path d="M163.246 30.0924C162.756 30.0924 162.333 29.9842 161.978 29.7678C161.625 29.5492 161.352 29.2445 161.16 28.8537C160.97 28.4607 160.875 28.0036 160.875 27.4826C160.875 26.9615 160.97 26.5022 161.16 26.1048C161.352 25.7052 161.619 25.3938 161.961 25.1708C162.306 24.9456 162.708 24.833 163.167 24.833C163.432 24.833 163.694 24.8772 163.952 24.9655C164.21 25.0538 164.445 25.1973 164.657 25.396C164.869 25.5925 165.038 25.8531 165.164 26.1777C165.29 26.5022 165.353 26.9019 165.353 27.3766V27.7078H161.432V27.0321H164.558C164.558 26.7451 164.501 26.489 164.386 26.2638C164.273 26.0386 164.112 25.8608 163.902 25.7305C163.695 25.6003 163.45 25.5351 163.167 25.5351C162.856 25.5351 162.586 25.6124 162.359 25.767C162.134 25.9193 161.96 26.118 161.839 26.3631C161.717 26.6082 161.657 26.871 161.657 27.1514V27.6018C161.657 27.986 161.723 28.3117 161.855 28.5788C161.99 28.8438 162.177 29.0458 162.415 29.1849C162.654 29.3218 162.931 29.3902 163.246 29.3902C163.452 29.3902 163.637 29.3615 163.803 29.3041C163.971 29.2445 164.115 29.1562 164.237 29.0392C164.358 28.9199 164.452 28.772 164.518 28.5954L165.273 28.8073C165.194 29.0635 165.06 29.2887 164.873 29.483C164.685 29.6751 164.453 29.8252 164.177 29.9334C163.901 30.0394 163.591 30.0924 163.246 30.0924Z" fill="#F94735"/>
<path d="M157.971 30.0924C157.494 30.0924 157.083 29.9798 156.738 29.7546C156.394 29.5293 156.129 29.2191 155.944 28.8239C155.758 28.4287 155.665 27.9771 155.665 27.4693C155.665 26.9527 155.76 26.4967 155.95 26.1015C156.142 25.704 156.409 25.3938 156.752 25.1708C157.096 24.9456 157.498 24.833 157.957 24.833C158.315 24.833 158.637 24.8992 158.924 25.0317C159.211 25.1642 159.447 25.3497 159.63 25.5881C159.813 25.8266 159.927 26.1048 159.971 26.4227H159.189C159.13 26.1909 158.997 25.9856 158.792 25.8067C158.589 25.6257 158.315 25.5351 157.971 25.5351C157.666 25.5351 157.399 25.6146 157.169 25.7736C156.942 25.9304 156.764 26.1523 156.636 26.4393C156.51 26.7241 156.447 27.0586 156.447 27.4428C156.447 27.8358 156.509 28.1781 156.632 28.4695C156.758 28.761 156.935 28.9873 157.162 29.1485C157.392 29.3097 157.661 29.3902 157.971 29.3902C158.174 29.3902 158.358 29.3549 158.524 29.2843C158.689 29.2136 158.829 29.112 158.944 28.9796C159.059 28.8471 159.141 28.6881 159.189 28.5026H159.971C159.927 28.8029 159.817 29.0734 159.643 29.3141C159.471 29.5525 159.242 29.7424 158.957 29.8837C158.675 30.0228 158.346 30.0924 157.971 30.0924Z" fill="#F94735"/>
<path d="M151.23 26.9262V29.9864H150.448V24.8992H151.203V25.6941H151.27C151.389 25.4358 151.57 25.2282 151.813 25.0715C152.056 24.9125 152.369 24.833 152.753 24.833C153.098 24.833 153.399 24.9037 153.658 25.045C153.916 25.1841 154.117 25.396 154.26 25.6809C154.404 25.9635 154.476 26.3212 154.476 26.7539V29.9864H153.694V26.8069C153.694 26.4073 153.59 26.096 153.383 25.873C153.175 25.6477 152.89 25.5351 152.528 25.5351C152.279 25.5351 152.056 25.5892 151.859 25.6974C151.665 25.8056 151.511 25.9635 151.399 26.171C151.286 26.3786 151.23 26.6303 151.23 26.9262Z" fill="#F94735"/>
<path d="M147.153 30.0924C146.663 30.0924 146.24 29.9842 145.884 29.7678C145.531 29.5492 145.258 29.2445 145.066 28.8537C144.876 28.4607 144.781 28.0036 144.781 27.4826C144.781 26.9615 144.876 26.5022 145.066 26.1048C145.258 25.7052 145.526 25.3938 145.868 25.1708C146.212 24.9456 146.614 24.833 147.073 24.833C147.338 24.833 147.6 24.8772 147.858 24.9655C148.117 25.0538 148.352 25.1973 148.564 25.396C148.776 25.5925 148.945 25.8531 149.07 26.1777C149.196 26.5022 149.259 26.9019 149.259 27.3766V27.7078H145.338V27.0321H148.464C148.464 26.7451 148.407 26.489 148.292 26.2638C148.18 26.0386 148.018 25.8608 147.809 25.7305C147.601 25.6003 147.356 25.5351 147.073 25.5351C146.762 25.5351 146.493 25.6124 146.265 25.767C146.04 25.9193 145.867 26.118 145.745 26.3631C145.624 26.6082 145.563 26.871 145.563 27.1514V27.6018C145.563 27.986 145.629 28.3117 145.762 28.5788C145.897 28.8438 146.083 29.0458 146.322 29.1849C146.56 29.3218 146.837 29.3902 147.153 29.3902C147.358 29.3902 147.544 29.3615 147.709 29.3041C147.877 29.2445 148.022 29.1562 148.143 29.0392C148.265 28.9199 148.358 28.772 148.425 28.5954L149.18 28.8073C149.1 29.0635 148.967 29.2887 148.779 29.483C148.591 29.6751 148.36 29.8252 148.084 29.9334C147.808 30.0394 147.497 30.0924 147.153 30.0924Z" fill="#F94735"/>
<path d="M141.39 32.0001C141.013 32.0001 140.688 31.9515 140.416 31.8543C140.145 31.7594 139.919 31.6335 139.737 31.4768C139.559 31.3222 139.416 31.1566 139.31 30.98L139.933 30.5428C140.004 30.6355 140.093 30.7415 140.201 30.8607C140.309 30.9822 140.457 31.0871 140.645 31.1754C140.835 31.2659 141.083 31.3112 141.39 31.3112C141.801 31.3112 142.14 31.2118 142.407 31.0131C142.674 30.8144 142.808 30.5031 142.808 30.0791V29.0458H142.741C142.684 29.1385 142.602 29.2533 142.496 29.3902C142.393 29.5249 142.242 29.6453 142.046 29.7512C141.852 29.855 141.589 29.9069 141.258 29.9069C140.847 29.9069 140.478 29.8098 140.151 29.6155C139.827 29.4212 139.57 29.1385 139.38 28.7676C139.192 28.3967 139.098 27.9462 139.098 27.4163C139.098 26.8952 139.19 26.4415 139.373 26.0551C139.556 25.6665 139.811 25.3662 140.138 25.1543C140.465 24.9401 140.843 24.833 141.271 24.833C141.602 24.833 141.865 24.8882 142.059 24.9986C142.256 25.1068 142.406 25.2304 142.51 25.3695C142.616 25.5064 142.697 25.619 142.755 25.7074H142.834V24.8992H143.589V30.1321C143.589 30.5693 143.49 30.9248 143.291 31.1986C143.095 31.4746 142.83 31.6766 142.496 31.8046C142.165 31.9349 141.796 32.0001 141.39 32.0001ZM141.364 29.2048C141.677 29.2048 141.942 29.133 142.158 28.9895C142.375 28.846 142.539 28.6395 142.652 28.3702C142.765 28.1008 142.821 27.7784 142.821 27.4031C142.821 27.0366 142.766 26.7131 142.655 26.4327C142.545 26.1523 142.382 25.9326 142.165 25.7736C141.949 25.6146 141.682 25.5351 141.364 25.5351C141.032 25.5351 140.756 25.619 140.536 25.7868C140.317 25.9547 140.153 26.1799 140.042 26.4625C139.934 26.7451 139.88 27.0586 139.88 27.4031C139.88 27.7564 139.935 28.0688 140.045 28.3404C140.158 28.6097 140.324 28.8217 140.542 28.9762C140.763 29.1286 141.037 29.2048 141.364 29.2048Z" fill="#F94735"/>
<path d="M137.123 29.9865V24.8994H137.905V29.9865H137.123ZM137.521 24.0515C137.369 24.0515 137.237 23.9996 137.127 23.8959C137.019 23.7921 136.964 23.6673 136.964 23.5216C136.964 23.3759 137.019 23.2511 137.127 23.1474C137.237 23.0436 137.369 22.9917 137.521 22.9917C137.673 22.9917 137.804 23.0436 137.912 23.1474C138.022 23.2511 138.077 23.3759 138.077 23.5216C138.077 23.6673 138.022 23.7921 137.912 23.8959C137.804 23.9996 137.673 24.0515 137.521 24.0515Z" fill="#F94735"/>
<path d="M135.692 23.2036V29.9865H134.91V23.2036H135.692Z" fill="#F94735"/>
<path d="M133.479 23.2036V29.9865H132.697V23.2036H133.479Z" fill="#F94735"/>
<path d="M129.402 30.0924C128.912 30.0924 128.489 29.9842 128.133 29.7678C127.78 29.5492 127.507 29.2445 127.315 28.8537C127.125 28.4607 127.03 28.0036 127.03 27.4826C127.03 26.9615 127.125 26.5022 127.315 26.1048C127.507 25.7052 127.774 25.3938 128.117 25.1708C128.461 24.9456 128.863 24.833 129.322 24.833C129.587 24.833 129.849 24.8772 130.107 24.9655C130.366 25.0538 130.601 25.1973 130.813 25.396C131.025 25.5925 131.194 25.8531 131.319 26.1777C131.445 26.5022 131.508 26.9019 131.508 27.3766V27.7078H127.587V27.0321H130.713C130.713 26.7451 130.656 26.489 130.541 26.2638C130.428 26.0386 130.267 25.8608 130.058 25.7305C129.85 25.6003 129.605 25.5351 129.322 25.5351C129.011 25.5351 128.742 25.6124 128.514 25.767C128.289 25.9193 128.116 26.118 127.994 26.3631C127.873 26.6082 127.812 26.871 127.812 27.1514V27.6018C127.812 27.986 127.878 28.3117 128.011 28.5788C128.145 28.8438 128.332 29.0458 128.57 29.1849C128.809 29.3218 129.086 29.3902 129.402 29.3902C129.607 29.3902 129.793 29.3615 129.958 29.3041C130.126 29.2445 130.271 29.1562 130.392 29.0392C130.513 28.9199 130.607 28.772 130.674 28.5954L131.429 28.8073C131.349 29.0635 131.216 29.2887 131.028 29.483C130.84 29.6751 130.608 29.8252 130.332 29.9334C130.056 30.0394 129.746 30.0924 129.402 30.0924Z" fill="#F94735"/>
<path d="M126.148 24.8995V25.5618H123.511V24.8995H126.148ZM124.28 23.6807H125.061V28.5293C125.061 28.7501 125.093 28.9157 125.158 29.0261C125.224 29.1343 125.308 29.2072 125.409 29.2447C125.513 29.2801 125.622 29.2977 125.737 29.2977C125.823 29.2977 125.894 29.2933 125.949 29.2845C126.004 29.2734 126.048 29.2646 126.082 29.258L126.241 29.9601C126.188 29.98 126.114 29.9999 126.019 30.0197C125.924 30.0418 125.803 30.0528 125.658 30.0528C125.437 30.0528 125.22 30.0054 125.008 29.9104C124.799 29.8155 124.624 29.6709 124.485 29.4766C124.348 29.2823 124.28 29.0372 124.28 28.7413V23.6807Z" fill="#F94735"/>
<path d="M119.261 26.9262V29.9864H118.48V24.8992H119.235V25.6941H119.301C119.42 25.4358 119.601 25.2282 119.844 25.0715C120.087 24.9125 120.401 24.833 120.785 24.833C121.129 24.833 121.431 24.9037 121.689 25.045C121.947 25.1841 122.148 25.396 122.292 25.6809C122.435 25.9635 122.507 26.3212 122.507 26.7539V29.9864H121.725V26.8069C121.725 26.4073 121.622 26.096 121.414 25.873C121.207 25.6477 120.922 25.5351 120.56 25.5351C120.31 25.5351 120.087 25.5892 119.891 25.6974C119.696 25.8056 119.543 25.9635 119.43 26.171C119.318 26.3786 119.261 26.6303 119.261 26.9262Z" fill="#F94735"/>
<path d="M116.267 29.9865V24.8994H117.048V29.9865H116.267ZM116.664 24.0515C116.512 24.0515 116.38 23.9996 116.27 23.8959C116.162 23.7921 116.108 23.6673 116.108 23.5216C116.108 23.3759 116.162 23.2511 116.27 23.1474C116.38 23.0436 116.512 22.9917 116.664 22.9917C116.816 22.9917 116.947 23.0436 117.055 23.1474C117.165 23.2511 117.22 23.3759 117.22 23.5216C117.22 23.6673 117.165 23.7921 117.055 23.8959C116.947 23.9996 116.816 24.0515 116.664 24.0515Z" fill="#F94735"/>
<path d="M112.374 26.0386L111.672 26.2373C111.628 26.1202 111.563 26.0065 111.477 25.8961C111.393 25.7835 111.278 25.6908 111.132 25.6179C110.986 25.5451 110.8 25.5086 110.572 25.5086C110.261 25.5086 110.002 25.5804 109.794 25.7239C109.589 25.8652 109.486 26.0452 109.486 26.2638C109.486 26.4581 109.557 26.6115 109.698 26.7241C109.839 26.8367 110.06 26.9306 110.36 27.0056L111.116 27.1911C111.57 27.3015 111.909 27.4704 112.132 27.6978C112.355 27.9231 112.467 28.2134 112.467 28.5689C112.467 28.8603 112.383 29.1209 112.215 29.3505C112.05 29.5801 111.818 29.7612 111.52 29.8937C111.222 30.0261 110.875 30.0924 110.48 30.0924C109.961 30.0924 109.531 29.9798 109.191 29.7546C108.851 29.5293 108.636 29.2004 108.546 28.7676L109.287 28.5821C109.358 28.8559 109.492 29.0613 109.688 29.1981C109.887 29.335 110.146 29.4035 110.466 29.4035C110.831 29.4035 111.12 29.3262 111.334 29.1717C111.551 29.0149 111.659 28.8272 111.659 28.6086C111.659 28.432 111.597 28.2841 111.473 28.1648C111.35 28.0434 111.16 27.9529 110.904 27.8932L110.056 27.6945C109.59 27.5841 109.248 27.413 109.029 27.1812C108.813 26.9471 108.705 26.6546 108.705 26.3035C108.705 26.0165 108.785 25.7626 108.946 25.5418C109.11 25.321 109.332 25.1476 109.612 25.0218C109.895 24.8959 110.215 24.833 110.572 24.833C111.076 24.833 111.471 24.9434 111.758 25.1642C112.047 25.385 112.253 25.6764 112.374 26.0386Z" fill="#F94735"/>
<path d="M105.628 30.0924C105.151 30.0924 104.74 29.9798 104.396 29.7546C104.051 29.5293 103.786 29.2191 103.601 28.8239C103.415 28.4287 103.323 27.9771 103.323 27.4693C103.323 26.9527 103.418 26.4967 103.607 26.1015C103.8 25.704 104.067 25.3938 104.409 25.1708C104.753 24.9456 105.155 24.833 105.614 24.833C105.972 24.833 106.295 24.8992 106.582 25.0317C106.869 25.1642 107.104 25.3497 107.287 25.5881C107.47 25.8266 107.584 26.1048 107.628 26.4227H106.847C106.787 26.1909 106.654 25.9856 106.449 25.8067C106.246 25.6257 105.972 25.5351 105.628 25.5351C105.323 25.5351 105.056 25.6146 104.826 25.7736C104.599 25.9304 104.421 26.1523 104.293 26.4393C104.167 26.7241 104.104 27.0586 104.104 27.4428C104.104 27.8358 104.166 28.1781 104.29 28.4695C104.416 28.761 104.592 28.9873 104.82 29.1485C105.049 29.3097 105.319 29.3902 105.628 29.3902C105.831 29.3902 106.015 29.3549 106.181 29.2843C106.346 29.2136 106.487 29.112 106.601 28.9796C106.716 28.8471 106.798 28.6881 106.847 28.5026H107.628C107.584 28.8029 107.475 29.0734 107.3 29.3141C107.128 29.5525 106.9 29.7424 106.615 29.8837C106.332 30.0228 106.003 30.0924 105.628 30.0924Z" fill="#F94735"/>
<path d="M101.348 29.9865V24.8994H102.13V29.9865H101.348ZM101.745 24.0515C101.593 24.0515 101.462 23.9996 101.351 23.8959C101.243 23.7921 101.189 23.6673 101.189 23.5216C101.189 23.3759 101.243 23.2511 101.351 23.1474C101.462 23.0436 101.593 22.9917 101.745 22.9917C101.898 22.9917 102.028 23.0436 102.136 23.1474C102.247 23.2511 102.302 23.3759 102.302 23.5216C102.302 23.6673 102.247 23.7921 102.136 23.8959C102.028 23.9996 101.898 24.0515 101.745 24.0515Z" fill="#F94735"/>
<path d="M100.172 24.8995V25.5618H97.5359V24.8995H100.172ZM98.3043 23.6807H99.0859V28.5293C99.0859 28.7501 99.1179 28.9157 99.1819 29.0261C99.2482 29.1343 99.3321 29.2072 99.4336 29.2447C99.5374 29.2801 99.6467 29.2977 99.7615 29.2977C99.8476 29.2977 99.9183 29.2933 99.9735 29.2845C100.029 29.2734 100.073 29.2646 100.106 29.258L100.265 29.9601C100.212 29.98 100.138 29.9999 100.043 30.0197C99.9481 30.0418 99.8278 30.0528 99.682 30.0528C99.4612 30.0528 99.2449 30.0054 99.0329 29.9104C98.8231 29.8155 98.6487 29.6709 98.5096 29.4766C98.3727 29.2823 98.3043 29.0372 98.3043 28.7413V23.6807Z" fill="#F94735"/>
<path d="M96.6904 26.0386L95.9883 26.2373C95.9441 26.1202 95.879 26.0065 95.7929 25.8961C95.709 25.7835 95.5942 25.6908 95.4484 25.6179C95.3027 25.5451 95.1161 25.5086 94.8887 25.5086C94.5774 25.5086 94.318 25.5804 94.1104 25.7239C93.9051 25.8652 93.8024 26.0452 93.8024 26.2638C93.8024 26.4581 93.8731 26.6115 94.0144 26.7241C94.1557 26.8367 94.3765 26.9306 94.6768 27.0056L95.4319 27.1911C95.8867 27.3015 96.2256 27.4704 96.4487 27.6978C96.6717 27.9231 96.7832 28.2134 96.7832 28.5689C96.7832 28.8603 96.6993 29.1209 96.5314 29.3505C96.3659 29.5801 96.134 29.7612 95.8359 29.8937C95.5379 30.0261 95.1912 30.0924 94.796 30.0924C94.2771 30.0924 93.8477 29.9798 93.5076 29.7546C93.1676 29.5293 92.9523 29.2004 92.8618 28.7676L93.6037 28.5821C93.6743 28.8559 93.8079 29.0613 94.0044 29.1981C94.2032 29.335 94.4626 29.4035 94.7827 29.4035C95.1471 29.4035 95.4363 29.3262 95.6505 29.1717C95.8669 29.0149 95.975 28.8272 95.975 28.6086C95.975 28.432 95.9132 28.2841 95.7896 28.1648C95.6659 28.0434 95.476 27.9529 95.2199 27.8932L94.3721 27.6945C93.9062 27.5841 93.5639 27.413 93.3454 27.1812C93.129 26.9471 93.0208 26.6546 93.0208 26.3035C93.0208 26.0165 93.1014 25.7626 93.2626 25.5418C93.4259 25.321 93.6479 25.1476 93.9283 25.0218C94.2109 24.8959 94.531 24.833 94.8887 24.833C95.3921 24.833 95.7874 24.9434 96.0744 25.1642C96.3636 25.385 96.569 25.6764 96.6904 26.0386Z" fill="#F94735"/>
<path d="M90.8738 29.9865V24.8994H91.6554V29.9865H90.8738ZM91.2713 24.0515C91.1189 24.0515 90.9875 23.9996 90.8771 23.8959C90.7689 23.7921 90.7148 23.6673 90.7148 23.5216C90.7148 23.3759 90.7689 23.2511 90.8771 23.1474C90.9875 23.0436 91.1189 22.9917 91.2713 22.9917C91.4236 22.9917 91.5539 23.0436 91.6621 23.1474C91.7725 23.2511 91.8277 23.3759 91.8277 23.5216C91.8277 23.6673 91.7725 23.7921 91.6621 23.8959C91.5539 23.9996 91.4236 24.0515 91.2713 24.0515Z" fill="#F94735"/>
<path d="M87.244 32.0001C86.8665 32.0001 86.5419 31.9515 86.2703 31.8543C85.9987 31.7594 85.7724 31.6335 85.5914 31.4768C85.4125 31.3222 85.2701 31.1566 85.1641 30.98L85.7868 30.5428C85.8574 30.6355 85.9468 30.7415 86.055 30.8607C86.1632 30.9822 86.3111 31.0871 86.4988 31.1754C86.6887 31.2659 86.9371 31.3112 87.244 31.3112C87.6547 31.3112 87.9936 31.2118 88.2608 31.0131C88.5279 30.8144 88.6615 30.5031 88.6615 30.0791V29.0458H88.5953C88.5379 29.1385 88.4562 29.2533 88.3502 29.3902C88.2464 29.5249 88.0963 29.6453 87.8998 29.7512C87.7055 29.855 87.4427 29.9069 87.1115 29.9069C86.7009 29.9069 86.3321 29.8098 86.0053 29.6155C85.6808 29.4212 85.4235 29.1385 85.2337 28.7676C85.046 28.3967 84.9521 27.9462 84.9521 27.4163C84.9521 26.8952 85.0438 26.4415 85.227 26.0551C85.4103 25.6665 85.6653 25.3662 85.9921 25.1543C86.3189 24.9401 86.6964 24.833 87.1248 24.833C87.456 24.833 87.7187 24.8882 87.913 24.9986C88.1095 25.1068 88.2597 25.2304 88.3635 25.3695C88.4694 25.5064 88.5511 25.619 88.6085 25.7074H88.688V24.8992H89.4431V30.1321C89.4431 30.5693 89.3438 30.9248 89.1451 31.1986C88.9486 31.4746 88.6836 31.6766 88.3502 31.8046C88.019 31.9349 87.6503 32.0001 87.244 32.0001ZM87.2175 29.2048C87.531 29.2048 87.796 29.133 88.0124 28.9895C88.2288 28.846 88.3933 28.6395 88.5059 28.3702C88.6185 28.1008 88.6748 27.7784 88.6748 27.4031C88.6748 27.0366 88.6196 26.7131 88.5092 26.4327C88.3988 26.1523 88.2354 25.9326 88.019 25.7736C87.8026 25.6146 87.5355 25.5351 87.2175 25.5351C86.8863 25.5351 86.6103 25.619 86.3895 25.7868C86.1709 25.9547 86.0065 26.1799 85.8961 26.4625C85.7879 26.7451 85.7338 27.0586 85.7338 27.4031C85.7338 27.7564 85.789 28.0688 85.8994 28.3404C86.012 28.6097 86.1776 28.8217 86.3962 28.9762C86.617 29.1286 86.8907 29.2048 87.2175 29.2048Z" fill="#F94735"/>
<path d="M81.6923 30.0924C81.2331 30.0924 80.8301 29.9831 80.4835 29.7645C80.139 29.5459 79.8696 29.2401 79.6753 28.8471C79.4833 28.4541 79.3872 27.9948 79.3872 27.4693C79.3872 26.9394 79.4833 26.4768 79.6753 26.0816C79.8696 25.6864 80.139 25.3795 80.4835 25.1609C80.8301 24.9423 81.2331 24.833 81.6923 24.833C82.1516 24.833 82.5534 24.9423 82.8979 25.1609C83.2445 25.3795 83.5139 25.6864 83.706 26.0816C83.9003 26.4768 83.9974 26.9394 83.9974 27.4693C83.9974 27.9948 83.9003 28.4541 83.706 28.8471C83.5139 29.2401 83.2445 29.5459 82.8979 29.7645C82.5534 29.9831 82.1516 30.0924 81.6923 30.0924ZM81.6923 29.3902C82.0412 29.3902 82.3282 29.3008 82.5534 29.122C82.7786 28.9431 82.9453 28.708 83.0535 28.4165C83.1617 28.1251 83.2158 27.8093 83.2158 27.4693C83.2158 27.1293 83.1617 26.8124 83.0535 26.5188C82.9453 26.2251 82.7786 25.9878 82.5534 25.8067C82.3282 25.6257 82.0412 25.5351 81.6923 25.5351C81.3435 25.5351 81.0564 25.6257 80.8312 25.8067C80.606 25.9878 80.4393 26.2251 80.3311 26.5188C80.2229 26.8124 80.1688 27.1293 80.1688 27.4693C80.1688 27.8093 80.2229 28.1251 80.3311 28.4165C80.4393 28.708 80.606 28.9431 80.8312 29.122C81.0564 29.3008 81.3435 29.3902 81.6923 29.3902Z" fill="#F94735"/>
<path d="M78.1941 23.2036V29.9865H77.4125V23.2036H78.1941Z" fill="#F94735"/>
<path d="M140.547 14.0937H137.768V11.4689C137.768 11.4689 139.416 11.3556 140.071 12.0104C140.689 12.6292 140.547 14.0937 140.547 14.0937Z" fill="#F94735"/>
</svg>
