<svg width="90" height="20" viewBox="0 0 90 20" fill="none" xmlns="http://www.w3.org/2000/svg">
<g clip-path="url(#clip0_227_4813)">
<mask id="mask0_227_4813" style="mask-type:luminance" maskUnits="userSpaceOnUse" x="0" y="0" width="90" height="20">
<path d="M90 0H0V19.7685H90V0Z" fill="white"/>
</mask>
<g mask="url(#mask0_227_4813)">
<path fill-rule="evenodd" clip-rule="evenodd" d="M6.20312 0.0818369C4.45842 0.335755 3.13708 0.920008 2.09634 1.8977C1.42195 2.53123 1.04125 3.14534 0.7554 4.06068C0.604697 4.54316 0.593747 4.64459 0.596514 5.52984C0.599453 6.47884 0.673622 6.95031 0.918377 7.57571C1.16348 8.20204 1.76422 8.93654 2.36749 9.3475C3.15287 9.88248 4.49277 10.3865 6.00527 10.7159C6.13206 10.7435 6.35249 10.7918 6.49513 10.8231C6.63776 10.8545 6.91006 10.9103 7.10024 10.9471C7.29042 10.9839 7.54976 11.0366 7.67654 11.0642C7.80333 11.0918 8.0497 11.1453 8.22403 11.1831C9.79652 11.524 10.7713 11.9473 11.2108 12.4802C11.5277 12.8645 11.6384 13.2525 11.6135 13.8927C11.5941 14.3916 11.571 14.4889 11.3811 14.8724C11.2651 15.1065 11.0714 15.3938 10.9506 15.5106C10.2711 16.1681 9.11603 16.5371 7.73763 16.5372C5.88114 16.5372 4.54077 15.9024 3.95738 14.7466C3.86489 14.5634 3.72537 14.1742 3.64733 13.8817C3.5693 13.5892 3.47139 13.3284 3.42984 13.302C3.38829 13.2756 2.62486 13.2537 1.73327 13.2531C0.372909 13.2524 0.100952 13.266 0.0416509 13.3374C-0.0399533 13.4358 0.00280878 14.0441 0.131036 14.608C0.621871 16.7673 1.99174 18.3421 4.10348 19.1748C5.82103 19.852 8.27901 19.9597 10.3114 19.4468C12.5983 18.8697 14.3272 17.3971 14.9399 15.5045C15.4404 13.9584 15.3109 12.1241 14.6153 10.9084C14.0749 9.96379 13.2816 9.34145 11.9142 8.78923C10.987 8.41481 10.1445 8.20175 8.02232 7.80514C6.27227 7.47809 5.44303 7.22354 4.86483 6.83597C4.39278 6.51953 4.18214 6.14637 4.14607 5.56246C4.08146 4.51636 4.83019 3.7047 6.19182 3.34486C6.86131 3.16793 8.17424 3.16528 8.83485 3.33949C10.0942 3.67167 10.7585 4.30791 11.0523 5.46334C11.1141 5.70596 11.2081 5.93689 11.2613 5.97648C11.3332 6.02996 11.7621 6.04852 12.9278 6.04852C14.6844 6.04852 14.6786 6.04984 14.6786 5.65133C14.6786 5.33863 14.4827 4.47066 14.3064 4.00265C13.9836 3.14557 13.493 2.42652 12.7943 1.78619C11.842 0.913669 10.5499 0.328091 9.05108 0.0897899C8.35975 -0.0201108 6.93104 -0.0240873 6.20312 0.0818369ZM57.9876 0.0688118C55.6765 0.434706 53.6428 1.52985 52.1806 3.19582C50.04 5.63485 49.2374 8.89309 49.979 12.1335C50.4547 14.2118 51.6182 16.145 53.1467 17.3972C54.4568 18.4705 55.8033 19.0919 57.389 19.3555C58.021 19.4606 58.3572 19.4763 59.9639 19.4763C61.567 19.4763 61.8238 19.4643 61.9024 19.3858C61.9801 19.308 61.9929 19.0803 61.9929 17.7762C61.9929 16.4722 61.9801 16.2445 61.9024 16.1667C61.8239 16.0883 61.5683 16.076 59.9862 16.0755C58.2513 16.0748 58.1328 16.0679 57.6029 15.936C56.9674 15.7778 56.6977 15.6675 56.1163 15.3279C54.6988 14.5001 53.6546 12.9378 53.2653 11.0623C53.1578 10.5444 53.143 9.00915 53.2415 8.59946C53.5008 7.52189 53.8403 6.71109 54.3443 5.96541C54.6673 5.48754 55.4217 4.75235 55.9377 4.41257C57.1742 3.59831 58.4825 3.28031 60.0856 3.40439C63.2264 3.64747 65.1779 5.12978 65.7091 7.67593C65.7836 8.03318 65.7964 8.91798 65.7964 13.7236C65.7965 18.7642 65.8059 19.3623 65.887 19.4434C65.965 19.5213 66.1979 19.534 67.5563 19.534C69.0581 19.534 69.1379 19.5286 69.1946 19.4225C69.2346 19.3478 69.2543 17.4569 69.2543 13.6977C69.2543 7.84249 69.2484 7.67634 69.0022 6.61732C68.5971 4.87465 67.6046 3.30082 66.1733 2.13151C65.2234 1.35552 63.9888 0.748042 62.6716 0.408543C62.057 0.250175 61.7827 0.198652 60.8004 0.0571127C60.3 -0.0150403 58.469 -0.0073753 57.9876 0.0688118ZM81.4719 0.0607427C80.4476 0.262448 79.7747 0.468017 79.2119 0.751154C78.8373 0.939605 78.1422 1.42093 77.7483 1.76469C77.5546 1.93372 77.3696 2.07204 77.3373 2.07204C77.2416 2.07204 77.2089 1.85039 77.2081 1.19727C77.2074 0.715422 77.1876 0.562241 77.1167 0.491298C77.0386 0.413267 76.8007 0.400762 75.3919 0.400762C73.9831 0.400762 73.7452 0.413267 73.6671 0.491298C73.5855 0.572902 73.5766 1.4936 73.5766 9.76566C73.5766 18.0377 73.5855 18.9584 73.6671 19.04C73.8003 19.1731 76.9802 19.1765 77.113 19.0436C77.189 18.9677 77.2028 18.2213 77.2226 13.0933L77.2454 7.22993L77.3985 6.74008C77.9754 4.89453 79.2619 3.77074 81.216 3.40525C81.6881 3.3169 82.2145 3.32319 82.7686 3.42369C83.3802 3.53463 83.4993 3.57353 84.0278 3.83483C85.0865 4.3584 85.7821 5.20009 86.1511 6.40415L86.2806 6.82652L86.3111 12.923C86.3378 18.2571 86.3525 19.0264 86.4281 19.0742C86.4772 19.1053 87.2269 19.1292 88.1673 19.1297C89.5937 19.1304 89.8324 19.1182 89.9106 19.04C89.9917 18.9588 90.001 18.3383 89.9999 13.0609C89.9985 6.31321 89.9856 6.06661 89.5691 4.80947C88.729 2.2742 86.777 0.593074 84.1172 0.11411C83.4229 -0.0108901 81.9833 -0.0399372 81.4719 0.0607427ZM17.8853 0.717784C17.8084 0.794663 17.8111 0.84578 17.91 1.17883C18.0986 1.8142 18.2318 2.24441 18.4811 3.02293C18.6131 3.43499 18.8207 4.08333 18.9425 4.46369C19.0643 4.84405 19.3239 5.66095 19.5194 6.27904C19.7149 6.89712 19.9222 7.54546 19.9802 7.71979C20.1071 8.10182 20.8346 10.3794 21.2504 11.6963C21.6045 12.8173 21.9948 14.0381 22.4575 15.471C22.6416 16.0416 22.9388 16.9752 23.1178 17.5457C23.541 18.8947 23.663 19.2466 23.7625 19.4043L23.8444 19.534H25.88C27.7465 19.534 27.923 19.5256 28.0044 19.4331C28.0532 19.3776 28.371 18.4765 28.7107 17.4305C29.0503 16.3845 29.4268 15.2304 29.5473 14.8659C29.6678 14.5014 30.0178 13.4252 30.3249 12.4743C30.632 11.5234 30.9822 10.4471 31.103 10.0826C31.2239 9.71812 31.5599 8.68077 31.8498 7.77742C32.4812 5.80993 32.4608 5.86249 32.5878 5.88594C32.692 5.90519 32.7987 6.20164 33.5788 8.64187C33.7764 9.25996 34.0112 9.9861 34.1006 10.2555C34.19 10.5249 34.5008 11.4845 34.7912 12.3878C36.8214 18.7028 37.0361 19.3499 37.1335 19.4473C37.2073 19.5211 37.5156 19.534 39.2081 19.534C40.4342 19.534 41.2377 19.5117 41.3046 19.4759C41.4139 19.4173 41.4314 19.3667 42.6113 15.6727C42.8493 14.9279 43.1167 14.098 43.2056 13.8286C43.2945 13.5592 43.4492 13.0794 43.5491 12.7624C43.6492 12.4455 43.9522 11.4989 44.2226 10.6589C44.493 9.81897 44.8644 8.66492 45.0481 8.09439C45.2318 7.52385 45.5305 6.59024 45.7121 6.0197C45.8937 5.44916 46.1016 4.80082 46.1741 4.57895C46.6094 3.24856 47.2963 1.09728 47.3292 0.961907C47.4087 0.633472 47.3961 0.631283 45.4422 0.631283C44.4029 0.631283 43.6155 0.654566 43.5547 0.687069C43.4315 0.753056 43.4437 0.717037 42.6366 3.39989C42.289 4.55549 41.9099 5.81223 41.7941 6.19259C41.6784 6.57295 41.4577 7.29909 41.3037 7.80624C41.1497 8.31338 40.9286 9.03952 40.8123 9.41988C40.6961 9.80024 40.5136 10.4097 40.4067 10.7742C40.3 11.1387 39.9974 12.1371 39.7344 12.9929C39.3248 14.326 39.2404 14.549 39.1452 14.549C39.0498 14.549 38.9287 14.2258 38.2916 12.2726C37.8833 11.0206 37.1886 8.894 36.7479 7.5469C35.5744 3.96006 34.8759 1.81818 34.7041 1.27991C34.6088 0.980925 34.5066 0.77265 34.4287 0.718016C34.325 0.645402 34.0205 0.631283 32.5599 0.631283C30.9339 0.631283 30.8077 0.638601 30.7075 0.738762C30.6469 0.799389 30.3413 1.63503 30.0068 2.65496C29.6806 3.64978 29.1617 5.22873 28.8539 6.16378C28.5461 7.09882 27.8343 9.26428 27.2722 10.9759C26.0529 14.6887 26.092 14.5778 26.0022 14.5778C25.8881 14.5778 25.8292 14.4641 25.6884 13.9727C25.5448 13.4717 25.1192 12.0501 24.265 9.21817C23.9638 8.21973 23.6135 7.05272 23.4866 6.62482C23.2319 5.76607 23.1611 5.52938 22.4092 3.02293C22.1239 2.07204 21.8581 1.18206 21.8185 1.04513C21.6969 0.624714 21.7298 0.631283 19.7413 0.631283C18.2449 0.631283 17.9584 0.644651 17.8853 0.717784Z" fill="#0F313A"/>
</g>
</g>
<defs>
<clipPath id="clip0_227_4813">
<rect width="90" height="20" fill="white"/>
</clipPath>
</defs>
</svg>
