<svg width="122" height="38" viewBox="0 0 122 38" fill="none" xmlns="http://www.w3.org/2000/svg">
<path fill-rule="evenodd" clip-rule="evenodd" d="M74.3831 24.1199L71.039 20.3733L67.7279 24.1199H60.7584L67.5724 16.4653L60.7584 8.80881H67.9469L71.3215 12.5282L74.5717 8.80881H81.5101L74.7279 16.4329L81.6022 24.1199H74.3831ZM47.3695 24.1199V0H60.7584V5.37589H53.0396V8.80881H60.7584V13.9838H53.0396V18.7278H60.7584V24.1199H47.3695Z" fill="#F94735"/>
<path fill-rule="evenodd" clip-rule="evenodd" d="M41.7213 0V9.87297H41.6578C40.4089 8.43422 38.8457 7.93455 37.0343 7.93455C33.3202 7.93455 30.5237 10.4595 29.5411 13.7952C28.4206 10.118 25.534 7.8652 21.2528 7.8652C17.7738 7.8652 15.0298 9.42579 13.5962 11.9695V8.80946H6.40765V5.37654H14.2521V0.000652677H0V24.1212H6.407V13.9851H12.7933C12.5966 14.7643 12.4984 15.5651 12.501 16.3688C12.501 21.3999 16.3454 24.93 21.2521 24.93C25.3765 24.93 28.0953 22.9922 29.534 19.4614H24.0428C23.3001 20.525 22.7369 20.836 21.2521 20.836C19.5301 20.836 18.0447 19.3364 18.0447 17.5541H29.2262C29.7103 21.5528 32.8244 24.9981 37.0966 24.9981C38.9397 24.9981 40.628 24.0907 41.6578 22.5599H41.7213V24.1205H47.3694V0H41.7213ZM18.2242 14.0551C18.58 12.5217 19.7673 11.5211 21.2528 11.5211C22.8846 11.5211 24.0136 12.4913 24.3098 14.0551H18.2242ZM38.2929 20.4491C36.2113 20.4491 34.917 18.51 34.917 16.4848C34.917 14.3176 36.0421 12.2366 38.2929 12.2366C40.6267 12.2366 41.5554 14.3176 41.5554 16.4848C41.5561 18.5373 40.571 20.4491 38.2929 20.4491ZM97.8717 26.5418C97.4783 26.5418 97.2022 26.8645 97.2022 27.2178C97.2022 27.5671 97.4783 27.8963 97.8717 27.8963C98.2638 27.8963 98.5398 27.5787 98.5398 27.2178C98.5398 26.8542 98.2638 26.5418 97.8717 26.5418ZM99.3778 35.615V35.1983C98.7485 35.1717 98.5398 34.9352 98.5398 34.5412V29.3487H96.941V29.7673C97.2573 29.7926 97.4135 29.884 97.4135 30.4485V34.5405C97.4135 34.9339 97.2022 35.1711 96.8516 35.1977V35.6144L99.3778 35.615ZM106.508 27.1594V29.3364H108.012V29.836H106.508V34.442C106.508 35.0207 106.704 35.2586 107.058 35.2586C107.492 35.2586 107.819 34.9812 107.819 33.593V33.2275H108.237V33.8412C108.237 35.1666 107.752 35.7537 106.77 35.7537C105.904 35.7537 105.379 35.2029 105.379 34.1562V29.8367H104.569V29.442C105.355 29.0207 106.01 28.8367 106.088 27.1601L106.508 27.1594ZM109.782 26.5211C109.389 26.5211 109.113 26.8464 109.113 27.2009C109.113 27.5489 109.389 27.8795 109.782 27.8795C110.174 27.8795 110.45 27.5593 110.45 27.2009C110.45 26.8367 110.174 26.5211 109.782 26.5211ZM111.289 35.5956V35.1776C110.658 35.1523 110.45 34.9158 110.45 34.5204V29.3318H108.608V29.7485C109.166 29.7751 109.324 29.8665 109.324 30.4297V34.5204C109.324 34.9151 109.113 35.1523 108.485 35.1776V35.5956H111.289ZM116.233 33.4251C116.117 34.6552 115.54 35.7557 114.098 35.7557C112.775 35.7557 111.545 34.3947 111.545 32.4686C111.545 30.8309 112.683 29.1815 114.258 29.1815C115.371 29.1815 116.077 29.9268 116.077 30.8218C116.077 31.2988 115.837 31.6785 115.409 31.6785C115.043 31.6785 114.794 31.3091 114.794 30.9812C114.794 30.5392 114.99 30.2813 115.331 30.2813C115.422 30.2813 115.475 30.3214 115.527 30.3344L115.553 30.3078C115.357 29.8367 114.94 29.6001 114.454 29.6001C113.484 29.6001 112.828 30.5684 112.828 32.4316C112.828 34.6319 113.511 35.2605 114.27 35.2605C115.331 35.2605 115.671 34.291 115.816 33.3733L116.233 33.4251ZM100.01 35.615V33.4251H100.432C100.559 34.2515 101.09 35.3506 102.053 35.3506C102.708 35.3506 103.205 34.9592 103.205 34.2126C103.205 32.5243 100.063 33.2735 100.063 30.9657C100.063 30.153 100.653 29.197 101.805 29.197C102.524 29.197 102.813 29.5904 103.048 29.5904C103.178 29.5904 103.205 29.4459 103.259 29.3539H103.677V31.2515H103.259C103.113 30.5172 102.673 29.6176 101.857 29.6176C101.281 29.6176 100.9 29.9974 100.9 30.5593C100.9 32.1303 104.148 31.4238 104.148 33.8315C104.148 34.6468 103.506 35.7706 102.12 35.7706C101.242 35.7706 100.979 35.2981 100.664 35.2981C100.521 35.2981 100.457 35.4971 100.432 35.6144L100.01 35.615ZM117.113 35.615V33.4251H117.533C117.66 34.2515 118.192 35.3506 119.157 35.3506C119.81 35.3506 120.307 34.9592 120.307 34.2126C120.307 32.5243 117.165 33.2735 117.165 30.9657C117.165 30.153 117.755 29.197 118.907 29.197C119.626 29.197 119.915 29.5904 120.152 29.5904C120.281 29.5904 120.307 29.4459 120.36 29.3539H120.778V31.2515H120.36C120.216 30.5172 119.774 29.6176 118.959 29.6176C118.383 29.6176 118.002 29.9974 118.002 30.5593C118.002 32.1303 121.249 31.4238 121.249 33.8315C121.249 34.6468 120.609 35.7706 119.221 35.7706C118.343 35.7706 118.08 35.2981 117.765 35.2981C117.623 35.2981 117.558 35.4971 117.533 35.6144L117.113 35.615ZM79.2489 35.615V35.1964C80.0603 35.1432 80.2184 34.9877 80.2184 34.3053V27.9119C80.2184 27.2281 80.0603 27.0739 79.2489 27.0207V26.6027H82.5515V27.0207C81.6591 27.0739 81.5023 27.2281 81.5023 27.9119V34.3053C81.5023 34.8827 81.7388 35.1964 82.3947 35.1964C83.0188 35.1964 84.687 35.0227 84.8451 32.5865H85.2631V35.6157L79.2489 35.615ZM87.0765 32.4848C87.0765 30.2165 87.6008 29.6163 88.3344 29.6163C89.068 29.6163 89.591 30.2165 89.591 32.4848C89.591 34.7505 89.068 35.3532 88.3344 35.3532C87.6008 35.3532 87.0765 34.7505 87.0765 32.4848ZM85.8704 32.4848C85.8704 34.4647 87.103 35.7719 88.335 35.7719C89.5677 35.7719 90.7971 34.464 90.7971 32.4848C90.7971 30.5075 89.5684 29.1964 88.335 29.1964C87.103 29.1957 85.8704 30.5075 85.8704 32.4848ZM92.1361 36.3085C92.1361 35.6922 92.4109 35.1957 93.7589 35.1957C94.9131 35.1957 95.5424 35.6034 95.5424 36.2832C95.5424 36.9501 94.8879 37.5794 93.7589 37.5794C92.8678 37.5794 92.1361 37.0285 92.1361 36.3085ZM92.7919 31.2644C92.7919 29.9281 93.21 29.6163 93.707 29.6163C94.2067 29.6163 94.626 29.9274 94.626 31.2644C94.626 32.6014 94.2074 32.9151 93.707 32.9151C93.2093 32.9151 92.7919 32.6008 92.7919 31.2644ZM92.5807 34.9352C91.9656 35.0894 91.2463 35.5237 91.2463 36.2709C91.2463 37.1354 92.1614 38 93.7855 38C95.3856 38 96.4323 37.0836 96.4323 35.9682C96.4323 33.3085 92.5035 34.6176 92.5035 33.6228C92.5035 33.4141 92.6857 33.256 92.8678 33.1782C93.1043 33.2696 93.3804 33.3338 93.6409 33.3338C94.9255 33.3338 95.8308 32.4971 95.8308 31.1983C95.8308 30.4666 95.6092 30.0616 95.0965 29.5885C95.1367 29.2074 95.3143 28.9682 95.5373 28.9533C95.5107 29.046 95.4588 29.1523 95.4588 29.2281C95.4588 29.4511 95.5703 29.6481 95.849 29.6481C96.1387 29.6481 96.3163 29.4187 96.3163 29.1076C96.311 28.9388 96.2393 28.7789 96.1167 28.6627C95.9941 28.5465 95.8305 28.4835 95.6617 28.4874C95.1808 28.4874 94.7958 28.8036 94.7045 29.3785C94.4043 29.2564 94.083 29.1945 93.7589 29.1964C92.4893 29.1964 91.5852 30.0331 91.5852 31.2126C91.5852 32.0279 91.9384 32.5761 92.475 32.9404C92.0434 33.2178 91.6092 33.5314 91.6092 34.0026C91.6092 34.5548 92.2281 34.8542 92.58 34.9073V34.9352H92.5807ZM71.8172 33.0084C71.8172 34.488 71.2132 35.2754 70.545 35.2754C70.1374 35.2754 69.825 34.9339 69.825 34.2385C69.825 33.127 70.7706 32.6261 71.8172 32.2612V33.0084ZM73.6008 33.8062C73.5729 34.7505 73.4679 35.0376 73.2184 35.0376C73.0363 35.0376 72.9436 34.8691 72.9436 34.488V30.8464C72.9436 29.8639 72.3804 29.1957 70.9118 29.1957C69.7725 29.1957 68.9345 29.9183 68.9345 30.7349C68.9345 31.1782 69.2813 31.4576 69.5956 31.4576C69.917 31.4576 70.2184 31.1918 70.2184 30.7615C70.2184 30.4731 70.0868 30.127 69.6675 30.0855C69.9423 29.7602 70.3234 29.6131 70.7816 29.6131C71.475 29.6131 71.8172 29.9423 71.8172 30.6889V31.7634C70.6921 32.1821 68.6196 32.7965 68.6196 34.2923C68.6196 35.1568 69.2093 35.7706 70.2184 35.7706C71.1361 35.7706 71.5282 35.339 71.8438 34.7492H71.8704C71.9488 35.4569 72.302 35.7706 72.93 35.7706C73.7427 35.7706 74.0175 35.1821 74.0175 33.8049H73.6008V33.8062ZM54.2553 35.615V35.1964C54.884 35.1685 55.092 34.9358 55.092 34.5431V27.7265C55.092 27.2832 54.8704 27.048 54.2275 27.0201V26.5898H56.2203V34.5424C56.2203 34.9345 56.4297 35.1679 57.0596 35.1957V35.6144L54.2553 35.615ZM74.2275 35.615V35.1964C74.8568 35.1685 75.0654 34.9358 75.0654 34.5431V27.7265C75.0654 27.2832 74.8451 27.048 74.1996 27.0201V26.5898H76.1944V34.5424C76.1944 34.9345 76.4018 35.1679 77.0324 35.1957V35.6144L74.2275 35.615ZM58.3681 32.4848C58.3681 30.2165 58.8924 29.6163 59.6273 29.6163C60.3577 29.6163 60.8846 30.2165 60.8846 32.4848C60.8846 34.7505 60.3577 35.3532 59.6273 35.3532C58.8924 35.3526 58.3681 34.7505 58.3681 32.4848ZM57.1614 32.4848C57.1614 34.4647 58.3934 35.7719 59.6273 35.7719C60.8581 35.7719 62.0901 34.464 62.0901 32.4848C62.0901 30.5075 60.8587 29.1964 59.6273 29.1964C58.3934 29.1957 57.1614 30.5075 57.1614 32.4848ZM64.1542 32.9287C64.1542 30.4783 64.849 29.6935 65.4621 29.6935C66.186 29.6935 66.6306 30.4783 66.6306 32.5237C66.6306 34.606 65.9877 35.3526 65.2683 35.3526C64.6772 35.3526 64.1542 34.8425 64.1542 32.9287ZM63.0279 34.2262C63.0279 34.7784 62.9734 35.2741 62.8697 35.615H63.3156C63.3688 35.4984 63.5243 35.0894 63.7738 35.0894C64.103 35.0894 64.3901 35.7719 65.3461 35.7719C66.917 35.7719 67.9157 34.1342 67.9157 32.4848C67.9157 30.5178 66.8244 29.1964 65.6604 29.1964C64.9404 29.1964 64.4835 29.641 64.1821 30.2443H64.1555V26.5872H62.2657V27.0201C62.8445 27.048 63.0279 27.2275 63.0279 27.8859V34.2262ZM53.0227 26.6021V29.7654H52.6027C52.2631 27.5632 51.4776 26.8892 50.4815 26.8892C49.4459 26.8892 48.4887 27.755 48.4887 31.1069C48.4887 34.3299 49.4057 35.3273 50.4815 35.3273C51.372 35.3273 51.8438 34.7498 51.8438 33.2035C51.8438 31.8412 51.6468 31.6325 50.6118 31.5781V31.1614H54.0959V31.5781C53.2852 31.6325 53.1264 31.7894 53.1264 32.4679V35.6144H52.7077C52.5502 35.3273 52.4193 35.1167 52.2871 35.1167C52.1173 35.1167 52.1043 35.2852 51.5943 35.5483C51.2527 35.7317 50.8211 35.8218 50.4141 35.8218C48.7103 35.8218 47.0207 34.1737 47.0207 31.1069C47.0207 28.4614 48.5936 26.3908 50.453 26.3908C50.9255 26.3908 51.3979 26.5366 51.79 26.7706C52.0512 26.9287 52.1568 27.0454 52.2754 27.0454C52.4193 27.0454 52.4977 26.8898 52.6021 26.6021H53.0227Z" fill="#F94735"/>
<path fill-rule="evenodd" clip-rule="evenodd" d="M83.2376 22.4951C83.2377 22.2738 83.2816 22.0547 83.3665 21.8503C83.4515 21.646 83.576 21.4604 83.7328 21.3042C83.8897 21.1481 84.0758 21.0244 84.2805 20.9402C84.4852 20.8561 84.7045 20.8132 84.9258 20.814C85.1465 20.8139 85.365 20.8573 85.5689 20.9418C85.7727 21.0263 85.9579 21.1502 86.1138 21.3063C86.2698 21.4625 86.3933 21.6479 86.4775 21.8519C86.5617 22.0559 86.6048 22.2744 86.6044 22.4951C86.6056 22.7163 86.563 22.9356 86.4792 23.1403C86.3954 23.345 86.2719 23.5311 86.116 23.6879C85.96 23.8447 85.7745 23.9692 85.5703 24.0541C85.366 24.139 85.147 24.1827 84.9258 24.1827C84.704 24.1834 84.4842 24.1402 84.2791 24.0557C84.074 23.9711 83.8876 23.8468 83.7307 23.69C83.5738 23.5332 83.4495 23.3469 83.3649 23.1418C83.2802 22.9367 83.237 22.717 83.2376 22.4951ZM86.3095 22.4951C86.3093 22.128 86.1636 21.7758 85.9042 21.516C85.6448 21.2561 85.293 21.1097 84.9258 21.1089C84.1552 21.1089 83.5324 21.733 83.5324 22.4951C83.5324 23.2637 84.1552 23.8853 84.9258 23.8853C85.6906 23.8853 86.3095 23.2637 86.3095 22.4951ZM84.5661 22.6053V23.4608H84.257V21.4809H84.8986C85.2596 21.4809 85.6368 21.5807 85.6368 22.0278C85.6368 22.2573 85.4974 22.4355 85.233 22.4899V22.499C85.5078 22.5534 85.5383 22.674 85.57 22.8892C85.5979 23.0764 85.6193 23.2825 85.6867 23.4614H85.2933C85.2706 23.3512 85.2389 23.2249 85.2252 23.1082C85.2039 22.9371 85.2038 22.7803 85.1125 22.6869C85.0379 22.6059 84.9355 22.615 84.828 22.6059L84.5661 22.6053ZM84.8928 22.2994C85.1851 22.2877 85.2512 22.1678 85.2512 22.0155C85.2512 21.8671 85.1851 21.79 84.9388 21.79H84.5668V22.2987L84.8928 22.2994Z" fill="#F94735"/>
</svg>
