<svg width="147" height="32" viewBox="0 0 147 32" fill="none" xmlns="http://www.w3.org/2000/svg">
<path fill-rule="evenodd" clip-rule="evenodd" d="M23.706 23.872C23.6892 23.6241 23.6563 23.1585 22.9447 23.1585C22.5316 23.1585 21.8651 23.4336 21.6163 24.5995C21.4586 25.3421 21.6098 26.0077 22.3383 26.0077C22.8152 26.0077 23.2047 25.7383 23.415 25.2323H24.2759C23.9135 26.1288 23.1954 26.7522 22.1627 26.7522C21.0672 26.7522 20.4391 26.0133 20.7423 24.5883C21.0493 23.1473 22.0341 22.4141 23.0958 22.4141C24.3294 22.4141 24.6486 23.2608 24.565 23.872H23.706ZM26.6576 24.5836C26.2464 26.5184 27.6292 26.7531 28.1746 26.7531C28.72 26.7531 30.2024 26.5184 30.6136 24.5836C31.0247 22.6488 29.6419 22.4141 29.0965 22.4141C28.5511 22.415 27.0687 22.6497 26.6576 24.5836ZM36.5504 26.6451H35.7468L36.4781 23.2036H36.4668L34.9676 26.6451H34.1255L34.1077 23.2036H34.0955L33.3642 26.6451H32.5606L33.4364 22.523H34.6925L34.747 25.7702H34.7582L36.1814 22.523H37.4262L36.5504 26.6451ZM42.9275 26.6451H42.1239L42.8561 23.2036H42.8439L41.3447 26.6451H40.5035L40.4848 23.2036H40.4735L39.7422 26.6451H38.9377L39.8145 22.523H41.0706L41.1241 25.7702H41.1363L42.5595 22.523H43.8043L42.9275 26.6451ZM49.0717 25.205C48.8417 26.2884 48.0907 26.7522 47.0524 26.7522C46.6741 26.7522 46.1315 26.6602 45.8508 26.2537C45.6809 26.0021 45.6659 25.6707 45.7419 25.2567L46.323 22.5211H47.1998L46.6309 25.2004C46.5089 25.774 46.7877 26.0274 47.1895 26.0274C47.78 26.0274 48.0823 25.7392 48.1883 25.2407L48.7657 22.522H49.6416L49.0717 25.205ZM54.6509 22.5211H55.4545L54.5776 26.647H53.7168L52.6654 23.7058H52.6541L52.0289 26.647H51.2253L52.1021 22.5211H53.008L54.0285 25.3947H54.0407L54.6509 22.5211ZM57.8755 26.647H57.0166L57.8934 22.5211H58.7514L57.8755 26.647ZM63.5598 23.872C63.5429 23.6241 63.5101 23.1585 62.7985 23.1585C62.3854 23.1585 61.7189 23.4336 61.4711 24.5995C61.3133 25.3421 61.4645 26.0077 62.193 26.0077C62.6689 26.0077 63.0595 25.7383 63.2697 25.2323H64.1306C63.7673 26.1288 63.0501 26.7522 62.0174 26.7522C60.9219 26.7522 60.2938 26.0133 60.5971 24.5883C60.9031 23.1473 61.8888 22.4141 62.9506 22.4141C64.1841 22.4141 64.5033 23.2608 64.4197 23.872H63.5598ZM67.237 25.7955H68.7569L68.8404 26.647H69.7754L69.2009 22.5211H68.2086L65.8636 26.647H66.7704L67.237 25.7955ZM73.2292 26.647H72.3712L73.0931 23.2468H71.8483L72.0022 22.5211H75.3527L75.1969 23.2468H73.9521L73.2292 26.647ZM77.3363 26.647H76.4783L77.3551 22.5211H78.2132L77.3363 26.647ZM80.1067 24.5836C79.6955 26.5184 81.0783 26.7531 81.6228 26.7531C82.1691 26.7531 83.6505 26.5184 84.0617 24.5836C84.4738 22.6488 83.0901 22.4141 82.5456 22.4141C82.0011 22.4141 80.5178 22.6497 80.1067 24.5836ZM89.3292 22.5211H90.1328L89.256 26.647H88.3941L87.3437 23.7058H87.3324L86.7072 26.647H85.9045L86.7813 22.5211H87.6863L88.7077 25.3947H88.719L89.3292 22.5211ZM23.5286 30.987C23.8797 30.6274 24.09 30.3082 24.259 29.7553H23.5512C23.4824 30.0025 23.3614 30.232 23.1963 30.4284L22.7673 29.7093C22.9532 29.6117 23.5314 29.3056 23.6554 28.7245C23.7962 28.0627 23.3052 27.7689 22.8508 27.7689C22.2059 27.7689 21.6708 28.1537 21.5506 28.7189C21.4746 29.0766 21.6088 29.3864 21.7403 29.5826L21.6436 29.6342C20.8747 30.0454 20.6832 30.434 20.5996 30.8274C20.4692 31.4395 20.8503 31.9971 21.637 31.9971C22.2585 31.9971 22.619 31.7793 22.909 31.5371L23.1146 31.8929H24.0806L23.5286 30.987ZM33.5219 28.4945H31.3355L31.1487 29.3695H33.1576L33.0037 30.0951H30.9947L30.7675 31.1663H33.0515L32.8976 31.892H29.7724L30.6492 27.7689H33.6758L33.5219 28.4945ZM36.3157 31.1494H38.3641L38.2064 31.892H35.299L36.1758 27.7689H37.0338L36.3157 31.1494ZM44.1826 28.4945H41.9971L41.8103 29.3695H43.8183L43.6644 30.0951H41.6563L41.4292 31.1663H43.7123L43.5583 31.892H40.4331L41.3099 27.7689H44.3375L44.1826 28.4945ZM49.1656 29.1179C49.1487 28.87 49.1158 28.4044 48.4043 28.4044C47.9912 28.4044 47.3247 28.6813 47.0759 29.8473C46.9182 30.588 47.0693 31.2555 47.7987 31.2555C48.2747 31.2555 48.6652 30.9842 48.8755 30.4782H49.7364C49.374 31.3747 48.6558 31.998 47.6232 31.998C46.5276 31.998 45.8996 31.2611 46.2019 29.836C46.5089 28.3931 47.4946 27.6618 48.5554 27.6618C49.789 27.6618 50.1081 28.5086 50.0246 29.1179H49.1656ZM53.4849 31.892H52.6269L53.3497 28.4945H52.1049L52.2589 27.7689H55.6075L55.4526 28.4945H54.2078L53.4849 31.892ZM56.9959 31.892H57.8371L58.1797 30.282H59.0725C59.7118 30.282 59.6996 30.4998 59.5804 31.0611C59.4902 31.4864 59.479 31.6995 59.4959 31.892H60.4468L60.4694 31.7859C60.3004 31.7183 60.3323 31.5681 60.46 30.9645C60.6233 30.1965 60.4666 30.0698 60.1605 29.9233C60.5971 29.7863 60.9087 29.3939 61.0064 28.9348C61.0833 28.5753 61.0542 27.7689 59.9587 27.7689H57.8737L56.9959 31.892ZM63.5298 31.892H62.6717L63.5486 27.7689H64.4066L63.5298 31.892ZM69.2422 29.1179C69.2263 28.87 69.1934 28.4044 68.4809 28.4044C68.0678 28.4044 67.4013 28.6813 67.1534 29.8473C66.9957 30.588 67.1469 31.2555 67.8754 31.2555C68.3513 31.2555 68.7419 30.9842 68.9521 30.4782H69.813C69.4506 31.3747 68.7334 31.998 67.6998 31.998C66.6043 31.998 65.9762 31.2611 66.2794 29.836C66.5855 28.3931 67.5712 27.6618 68.633 27.6618C69.8665 27.6618 70.1857 28.5086 70.1021 29.1179H69.2422ZM72.8997 31.0433H74.4196L74.5031 31.892H75.4391L74.8627 27.7689H73.8713L71.5263 31.892H72.4322L72.8997 31.0433ZM78.6328 31.1494H80.6812L80.5235 31.892H77.6151L78.4929 27.7689H79.3519L78.6328 31.1494ZM89.408 29.1179C89.393 28.87 89.3601 28.4044 88.6467 28.4044C88.2346 28.4044 87.5671 28.6813 87.3193 29.8473C87.1615 30.588 87.3136 31.2555 88.0421 31.2555C88.519 31.2555 88.9095 30.9842 89.1198 30.4782H89.9797C89.6164 31.3747 88.9002 31.998 87.8656 31.998C86.771 31.998 86.142 31.2611 86.4462 29.836C86.7522 28.3931 87.7389 27.6618 88.7988 27.6618C90.0323 27.6618 90.3515 28.5086 90.2689 29.1179H89.408ZM92.2375 29.8295C91.8254 31.7643 93.2091 31.999 93.7536 31.999C94.3 31.999 95.7814 31.7643 96.1925 29.8295C96.6037 27.8965 95.2209 27.6618 94.6764 27.6618C94.1301 27.6628 92.6487 27.8975 92.2375 29.8295ZM101.491 27.7689H102.296L101.42 31.892H100.558L99.5074 28.9517H99.497L98.8709 31.892H98.0663L98.9432 27.7689H99.85L100.87 30.6396H100.883L101.491 27.7689ZM105.665 31.892H104.807L105.529 28.4945H104.284L104.438 27.7689H107.786L107.632 28.4945H106.387L105.665 31.892ZM109.099 31.892H109.939L110.282 30.282H111.174C111.813 30.282 111.802 30.4998 111.682 31.0611C111.59 31.4864 111.58 31.6995 111.596 31.892H112.548L112.569 31.7859C112.4 31.7183 112.432 31.5681 112.56 30.9645C112.723 30.1965 112.568 30.0698 112.262 29.9233C112.698 29.7863 113.01 29.3939 113.106 28.9348C113.183 28.5753 113.154 27.7689 112.06 27.7689H109.975L109.099 31.892ZM115.926 31.0433H117.445L117.528 31.892H118.463L117.887 27.7689H116.895L114.55 31.892H115.457L115.926 31.0433ZM123.777 29.1179C123.76 28.87 123.727 28.4044 123.015 28.4044C122.601 28.4044 121.936 28.6813 121.686 29.8473C121.528 30.588 121.68 31.2555 122.409 31.2555C122.886 31.2555 123.276 30.9842 123.486 30.4782H124.346C123.983 31.3747 123.267 31.998 122.234 31.998C121.138 31.998 120.511 31.2611 120.813 29.836C121.119 28.3931 122.106 27.6618 123.167 27.6618C124.399 27.6618 124.72 28.5086 124.636 29.1179H123.777ZM128.147 31.892H127.289L128.011 28.4945H126.767L126.92 27.7689H130.269L130.115 28.4945H128.87L128.147 31.892ZM131.562 29.8295C131.151 31.7643 132.533 31.999 133.078 31.999C133.624 31.999 135.106 31.7643 135.517 29.8295C135.929 27.8965 134.545 27.6618 134.001 27.6618C133.456 27.6618 131.972 27.8975 131.562 29.8295ZM137.535 31.892H138.376L138.719 30.282H139.61C140.25 30.282 140.239 30.4998 140.118 31.0611C140.028 31.4864 140.017 31.6995 140.033 31.892H140.985L141.007 31.7859C140.838 31.7183 140.87 31.5681 140.997 30.9645C141.161 30.1965 141.005 30.0698 140.699 29.9233C141.134 29.7863 141.447 29.3939 141.544 28.9348C141.621 28.5753 141.592 27.7689 140.495 27.7689H138.41L137.535 31.892ZM144.079 30.6237C144.037 30.8546 144.06 31.2911 144.816 31.2911C145.226 31.2911 145.702 31.1926 145.795 30.756C145.863 30.435 145.57 30.3486 145.155 30.2444L144.734 30.1421C144.097 29.9862 143.487 29.8379 143.679 28.9282C143.778 28.4682 144.197 27.6628 145.537 27.6628C146.801 27.6628 146.964 28.4861 146.861 28.9921H146.038C146.055 28.8071 146.078 28.3706 145.322 28.3706C144.994 28.3706 144.576 28.4917 144.497 28.8653C144.43 29.1864 144.678 29.2559 144.844 29.2962L145.799 29.5441C146.332 29.6811 146.798 29.9111 146.64 30.6537C146.377 31.891 145.093 31.9999 144.728 31.9999C143.221 31.9999 143.147 31.1362 143.258 30.6246L144.079 30.6237Z" fill="#6D6B6B"/>
<path fill-rule="evenodd" clip-rule="evenodd" d="M116.242 13.9296L115.886 15.3518H133.839L134.202 14.1258H123.987L124.037 13.9296H116.242ZM114.988 18.9333L114.843 19.5125H132.61L132.781 18.9333H114.988ZM115.34 17.5289L115.131 18.3662H132.948L133.195 17.5289H115.34ZM126.814 2.85013L127.374 0.618651L119.581 0.617713L119.02 2.85013H126.814ZM118.113 6.47287L117.567 8.6499H125.36L125.905 6.47287H118.113ZM117.425 9.21598L116.938 11.1574H124.731L125.218 9.21598H117.425ZM118.879 3.41621L118.254 5.90585H126.048L126.672 3.41621H118.879ZM115.745 15.9189L115.483 16.9618H133.364L133.672 15.9189H115.745ZM116.796 11.7235L116.386 13.3644H124.178L124.589 11.7235H116.796ZM20.642 18.9333L20.4974 19.5125H36.848L37.0179 18.9333H20.642ZM20.994 17.5289L20.7847 18.3662H37.186L37.4329 17.5289H20.994ZM21.3986 15.9189L21.1367 16.9618H37.6009L37.9088 15.9189H21.3986ZM32.4677 2.85013L33.0263 0.618651L25.2335 0.617713L24.674 2.85013H32.4677ZM21.8971 13.9296L21.5404 15.3518H38.0769L38.4392 14.1258H29.6411L29.6899 13.9296H21.8971ZM23.7662 6.47287L23.2208 8.6499H31.0135L31.559 6.47287H23.7662ZM24.5322 3.41621L23.908 5.90585H31.7007L32.325 3.41621H24.5322ZM23.079 9.21598L22.5918 11.1574H30.3846L30.8708 9.21598H23.079ZM22.45 11.7235L22.0389 13.3644H29.8316L30.2428 11.7235H22.45ZM1.0582 17.5289C1.23938 17.8537 1.42902 18.1325 1.61583 18.3672H17.6388L17.8613 17.5289H1.0582ZM12.4042 11.1574H19.5549L19.998 9.48728H12.9318L12.4042 11.1574ZM4.23783 3.41621C3.32567 4.10543 2.54014 4.94783 1.91624 5.90585H12.0221C12.2672 5.87206 12.5225 5.85234 12.791 5.85234H20.964L21.6117 3.41527L4.23783 3.41621ZM1.57077 6.47287C1.17649 7.16756 0.861058 7.89981 0.622609 8.6499H8.31023C8.73925 7.79936 9.39357 6.99765 10.3183 6.47287H1.57077ZM21.7619 2.85013L22.2313 1.08616H12.224C9.21708 1.08616 6.87391 1.75927 5.07709 2.85013H21.7619ZM2.13779 18.9333C2.5011 19.274 2.79963 19.4487 2.91979 19.5125H17.3356L17.4896 18.9333H2.13779ZM0.0931411 11.1574H7.64839C7.67702 10.4919 7.81597 9.83588 8.05958 9.21598H0.457384C0.288748 9.85336 0.167009 10.5022 0.0931411 11.1574ZM12.224 11.7235L12.0353 12.3196C12.0353 12.3196 13.4519 12.4135 15.1501 12.0361L14.8601 13.3644H18.9681L19.4037 11.7235H12.224ZM0.401058 15.9189C0.510895 16.3038 0.638568 16.6502 0.776567 16.9618H18.0115L18.2894 15.9189H0.401058ZM0.0471414 13.9296C0.0912638 14.4468 0.163548 14.9219 0.258364 15.3528H18.4405L18.8179 13.9296H0.0471414ZM7.6606 11.7235H0.0386917C-0.00113674 12.2695 -0.0102253 12.8174 0.0114679 13.3644H8.1497C7.96664 13.1419 7.72068 12.6697 7.6606 11.7235ZM88.4186 16.9618H97.3126L97.7219 16.4267H104.478L104.345 16.9618H112.3L112.552 15.9189H89.225L88.4186 16.9618ZM89.6616 15.3518H112.687L113.03 13.9296H90.7599L89.6616 15.3518ZM103.996 18.3662H111.963L112.165 17.5289H104.203L103.996 18.3662ZM105.79 11.1574H113.697L114.165 9.21598H106.273L105.79 11.1574ZM116.211 0.708775H100.965L99.3131 2.85013H115.696L116.211 0.708775ZM106.415 8.6499H114.301L114.825 6.47287H106.956L106.415 8.6499ZM105.619 11.8474H101.211L101.304 11.7235H92.4629L91.1965 13.3644H113.166L113.562 11.7235H105.648L105.619 11.8474ZM96.8817 17.5289H87.9821L87.3344 18.3662H96.2443L96.8817 17.5289ZM103.71 19.5125H111.688L111.825 18.9333H103.855L103.71 19.5125ZM95.8115 18.9333H86.8969L86.451 19.5125H95.3712L95.8115 18.9333ZM107.716 3.41621L107.096 5.90585H114.961L115.56 3.41621H107.716ZM103.217 9.21598H94.3977L92.8994 11.1574H101.737L103.217 9.21598ZM105.307 6.47287H96.5156L94.8361 8.6499H103.647L105.307 6.47287ZM107.635 3.41621H98.8747L96.954 5.90585H105.738L107.635 3.41621ZM47.7096 6.47287H39.8981C39.5663 7.17271 39.2992 7.90142 39.1001 8.6499H46.7277C47.044 7.74022 47.3642 7.02769 47.7096 6.47287ZM46.3972 9.67598C46.4451 9.51733 46.493 9.36431 46.5399 9.21504H38.9603C38.8167 9.8555 38.7101 10.5037 38.6411 11.1564H46.0846C46.1306 10.718 46.2311 10.228 46.3972 9.67598ZM49.1347 20.2494C50.3917 20.2494 51.5192 20.1912 52.5378 20.0767H45.4021C46.8028 20.2513 48.148 20.2494 49.1347 20.2494ZM46.0508 11.7235H38.5857C38.5416 12.2679 38.5209 12.8162 38.5162 13.3644H46.4592C46.2029 12.9504 46.0499 12.4153 46.0508 11.7235ZM52.8635 0C48.179 0 44.944 1.0993 42.7491 2.85013H61.9011C60.6281 1.12184 57.9667 0 52.8635 0ZM52.1313 4.54368C53.8239 4.54368 54.9344 4.90511 55.3888 5.90679H62.9028C62.8502 5.00932 62.6587 4.16723 62.2569 3.41715H42.0976C41.3353 4.14268 40.6908 4.98265 40.1872 5.90679H48.1161C49.0878 4.73895 50.2922 4.54368 52.1313 4.54368ZM55.5625 6.47287C55.6686 7.04083 55.6301 7.75806 55.4395 8.6499H62.7234C62.8408 7.90638 62.9159 7.17508 62.9178 6.47287H55.5625ZM53.6652 13.3644H61.6373C61.8053 12.8434 61.9537 12.2952 62.0907 11.7235H54.5064C54.2473 12.4003 53.9797 12.9411 53.6652 13.3644ZM50.0078 14.7379C49.0324 14.7379 47.7829 14.6224 46.9511 13.9296H38.5275C38.5491 14.445 38.6138 14.9181 38.7199 15.3528H60.8177C61.0515 14.905 61.258 14.4328 61.442 13.9296H53.1348C52.4242 14.5201 51.4722 14.7379 50.0078 14.7379ZM55.1757 9.67598C55.0316 10.1732 54.8764 10.6671 54.7101 11.1574H62.2221C62.3686 10.5096 62.5103 9.85905 62.6277 9.21598H55.3034C55.2639 9.36619 55.2226 9.51827 55.1757 9.67598ZM40.6379 18.3662H58.1009C58.4872 18.121 58.8499 17.8403 59.1843 17.5279H39.7845C40.0399 17.8424 40.3252 18.1222 40.6379 18.3662ZM42.8252 19.5125H55.5108C56.0439 19.3581 56.5648 19.1645 57.0692 18.9333H41.5015C41.9202 19.1642 42.3652 19.3548 42.8252 19.5125ZM39.3818 16.9618H59.7325C60.0151 16.637 60.2695 16.2887 60.4976 15.9189H38.8889C39.0222 16.2981 39.1874 16.6464 39.3818 16.9618ZM64.9211 11.1574H86.4857C86.0764 10.6335 85.714 10.3369 85.714 10.3369C85.714 10.3369 86.5871 10.1172 87.3785 9.21598H65.4496L64.9211 11.1574ZM84.2505 0.660902H67.7778L67.1817 2.85013H88.091C86.9147 0.661834 84.2505 0.660902 84.2505 0.660902ZM79.0525 8.2603H73.372L73.8489 6.47287H66.196L65.6036 8.6499H87.7981C88.1389 8.10634 88.4233 7.39663 88.5576 6.47287H81.145C81.0089 7.87446 79.9781 8.2603 79.0525 8.2603ZM88.3435 3.41621H67.0287L66.3509 5.90585H74.0009L74.3802 4.49017H79.443C79.443 4.49017 80.9798 4.49205 81.1431 5.90585H88.6186C88.6327 5.69962 88.6399 5.49297 88.6402 5.28625C88.6402 4.55213 88.5303 3.9363 88.3435 3.41621ZM62.6474 19.5125H83.9942C84.3134 19.4487 84.7809 19.2778 85.2775 18.9333H62.8051L62.6474 19.5125ZM71.9056 13.9296H64.1663L63.7796 15.3518H71.5254L71.9056 13.9296ZM72.4332 11.9591H78.3447C78.3447 11.9591 79.8758 11.961 80.0448 13.3644H87.5259C87.409 12.7829 87.1887 12.2271 86.8753 11.7235H64.7672L64.3212 13.3644H72.0577L72.4332 11.9591ZM62.9591 18.3662H85.945C86.1721 18.1315 86.3946 17.8546 86.5993 17.5279H63.1872L62.9591 18.3662ZM63.3412 16.9618H86.9147C87.0649 16.652 87.1992 16.3038 87.3128 15.9189H63.6256L63.3412 16.9618ZM87.5953 13.9296H80.0485C79.9847 14.6318 79.6946 15.0796 79.3078 15.3528H87.4564C87.493 15.1819 87.5277 15.0064 87.555 14.8214C87.6028 14.5126 87.6113 14.215 87.5953 13.9296Z" fill="#0F313A"/>
<path fill-rule="evenodd" clip-rule="evenodd" d="M27.5157 24.5835C27.7607 23.4288 28.4761 23.1406 28.9417 23.1406C29.4073 23.1406 30.0007 23.4288 29.7547 24.5835C29.5097 25.7382 28.7943 26.0264 28.3287 26.0264C27.8631 26.0264 27.2698 25.7392 27.5157 24.5835ZM68.4923 23.4542H68.5035L68.6669 25.0876H67.6173L68.4923 23.4542ZM80.9648 24.5835C81.2108 23.4288 81.9252 23.1406 82.3918 23.1406C82.8583 23.1406 83.4497 23.4288 83.2038 24.5835C82.9578 25.7382 82.2434 26.0264 81.7787 26.0264C81.3131 26.0264 80.7198 25.7392 80.9648 24.5835ZM22.9664 28.7188C22.9204 28.9319 22.7252 29.0925 22.4773 29.2324C22.3243 29.0174 22.2558 28.8512 22.2849 28.7132C22.3027 28.6186 22.3531 28.5332 22.4274 28.472C22.5017 28.4107 22.5951 28.3775 22.6914 28.3781C22.8885 28.3771 23.0143 28.487 22.9664 28.7188ZM22.605 31.032C22.4416 31.1587 22.1713 31.3183 21.9075 31.3183C21.424 31.3183 21.379 30.9353 21.4127 30.7757C21.4822 30.4509 21.6559 30.3354 22.0474 30.0904L22.605 31.032ZM58.3263 29.591L58.5628 28.4757H59.6396C60.1466 28.4757 60.1747 28.8005 60.1287 29.0221C60.0414 29.4342 59.7889 29.59 59.3402 29.59L58.3263 29.591ZM74.1549 28.7001H74.1662L74.3296 30.3354H73.2809L74.1549 28.7001ZM93.0957 29.8294C93.3416 28.6747 94.056 28.3884 94.5226 28.3884C94.9863 28.3884 95.5806 28.6747 95.3346 29.8294C95.0887 30.9841 94.3743 31.2723 93.9077 31.2723C93.4411 31.2723 92.8497 30.9851 93.0957 29.8294ZM110.428 29.591L110.665 28.4757H111.741C112.249 28.4757 112.276 28.8005 112.23 29.0221C112.142 29.4342 111.891 29.59 111.441 29.59L110.428 29.591ZM117.179 28.7001H117.19L117.354 30.3354H116.305L117.179 28.7001ZM132.42 29.8294C132.666 28.6747 133.38 28.3884 133.847 28.3884C134.313 28.3884 134.905 28.6747 134.659 29.8294C134.413 30.9841 133.699 31.2723 133.232 31.2723C132.768 31.2723 132.174 30.9851 132.42 29.8294ZM138.867 29.591L139.103 28.4757H140.179C140.687 28.4757 140.714 28.8005 140.668 29.0221C140.58 29.4342 140.327 29.59 139.878 29.59L138.867 29.591Z" fill="white"/>
</svg>
