<svg width="1920" height="76" viewBox="0 0 1920 76" fill="none" xmlns="http://www.w3.org/2000/svg">
<g opacity="0.12" clip-path="url(#clip0_386_1071)">
<line x1="-40.9955" y1="82.75" x2="9.8113" y2="-5.24999" stroke="black"/>
<line x1="-27.1752" y1="82.75" x2="23.6316" y2="-5.24999" stroke="black"/>
<line x1="-13.3627" y1="82.75" x2="37.4441" y2="-5.24999" stroke="black"/>
<line x1="0.457612" y1="82.75" x2="51.2644" y2="-5.24999" stroke="black"/>
<line x1="14.2779" y1="82.75" x2="65.0847" y2="-5.24999" stroke="black"/>
<line x1="28.0904" y1="82.75" x2="78.8972" y2="-5.24999" stroke="black"/>
<line x1="41.9107" y1="82.75" x2="92.7176" y2="-5.24999" stroke="black"/>
<line x1="55.731" y1="82.75" x2="106.538" y2="-5.24999" stroke="black"/>
<line x1="69.5435" y1="82.75" x2="120.35" y2="-5.24999" stroke="black"/>
<line x1="83.3639" y1="82.75" x2="134.171" y2="-5.24999" stroke="black"/>
<line x1="97.1842" y1="82.75" x2="147.991" y2="-5.24999" stroke="black"/>
<line x1="110.997" y1="82.75" x2="161.803" y2="-5.24999" stroke="black"/>
<line x1="124.817" y1="82.75" x2="175.624" y2="-5.24999" stroke="black"/>
<line x1="138.637" y1="82.75" x2="189.444" y2="-5.24999" stroke="black"/>
<line x1="152.45" y1="82.75" x2="203.257" y2="-5.24999" stroke="black"/>
<line x1="166.27" y1="82.75" x2="217.077" y2="-5.24999" stroke="black"/>
<line x1="180.09" y1="82.75" x2="230.897" y2="-5.24999" stroke="black"/>
<line x1="193.903" y1="82.75" x2="244.71" y2="-5.24999" stroke="black"/>
<line x1="207.723" y1="82.75" x2="258.53" y2="-5.24999" stroke="black"/>
<line x1="221.544" y1="82.75" x2="272.35" y2="-5.24999" stroke="black"/>
<line x1="235.356" y1="82.75" x2="286.163" y2="-5.24999" stroke="black"/>
<line x1="249.176" y1="82.75" x2="299.983" y2="-5.24999" stroke="black"/>
<line x1="262.997" y1="82.75" x2="313.803" y2="-5.24999" stroke="black"/>
<line x1="276.809" y1="82.75" x2="327.616" y2="-5.24999" stroke="black"/>
<line x1="290.629" y1="82.75" x2="341.436" y2="-5.24999" stroke="black"/>
<line x1="304.442" y1="82.75" x2="355.249" y2="-5.24999" stroke="black"/>
<line x1="318.262" y1="82.75" x2="369.069" y2="-5.24999" stroke="black"/>
<line x1="332.083" y1="82.75" x2="382.889" y2="-5.24999" stroke="black"/>
<line x1="345.895" y1="82.75" x2="396.702" y2="-5.24999" stroke="black"/>
<line x1="359.715" y1="82.75" x2="410.522" y2="-5.24999" stroke="black"/>
<line x1="373.536" y1="82.75" x2="424.343" y2="-5.24999" stroke="black"/>
<line x1="387.356" y1="82.75" x2="438.163" y2="-5.24999" stroke="black"/>
<line x1="401.169" y1="82.75" x2="451.975" y2="-5.24999" stroke="black"/>
<line x1="414.989" y1="82.75" x2="465.796" y2="-5.24999" stroke="black"/>
<line x1="428.801" y1="82.75" x2="479.608" y2="-5.24999" stroke="black"/>
<line x1="442.622" y1="82.75" x2="493.428" y2="-5.24999" stroke="black"/>
<line x1="456.442" y1="82.75" x2="507.249" y2="-5.24999" stroke="black"/>
<line x1="470.254" y1="82.75" x2="521.061" y2="-5.24999" stroke="black"/>
<line x1="484.075" y1="82.75" x2="534.882" y2="-5.24999" stroke="black"/>
<line x1="497.895" y1="82.75" x2="548.702" y2="-5.24999" stroke="black"/>
<line x1="511.708" y1="82.75" x2="562.514" y2="-5.24999" stroke="black"/>
<line x1="525.528" y1="82.75" x2="576.335" y2="-5.24999" stroke="black"/>
<line x1="539.348" y1="82.75" x2="590.155" y2="-5.24999" stroke="black"/>
<line x1="553.161" y1="82.75" x2="603.968" y2="-5.24999" stroke="black"/>
<line x1="566.981" y1="82.75" x2="617.788" y2="-5.24999" stroke="black"/>
<line x1="580.801" y1="82.75" x2="631.608" y2="-5.24999" stroke="black"/>
<line x1="594.614" y1="82.75" x2="645.421" y2="-5.24999" stroke="black"/>
<line x1="608.434" y1="82.75" x2="659.241" y2="-5.24999" stroke="black"/>
<line x1="622.254" y1="82.75" x2="673.061" y2="-5.24999" stroke="black"/>
<line x1="636.067" y1="82.75" x2="686.874" y2="-5.24999" stroke="black"/>
<line x1="649.887" y1="82.75" x2="700.694" y2="-5.24999" stroke="black"/>
<line x1="663.708" y1="82.75" x2="714.514" y2="-5.24999" stroke="black"/>
<line x1="677.52" y1="82.75" x2="728.327" y2="-5.24999" stroke="black"/>
<line x1="691.34" y1="82.75" x2="742.147" y2="-5.24999" stroke="black"/>
<line x1="705.153" y1="82.75" x2="755.96" y2="-5.24999" stroke="black"/>
<line x1="718.973" y1="82.75" x2="769.78" y2="-5.24999" stroke="black"/>
<line x1="732.794" y1="82.75" x2="783.6" y2="-5.24999" stroke="black"/>
<line x1="746.606" y1="82.75" x2="797.413" y2="-5.24999" stroke="black"/>
<line x1="760.426" y1="82.75" x2="811.233" y2="-5.24999" stroke="black"/>
<line x1="774.247" y1="82.75" x2="825.053" y2="-5.24999" stroke="black"/>
<line x1="788.067" y1="82.75" x2="838.874" y2="-5.24999" stroke="black"/>
<line x1="801.879" y1="82.75" x2="852.686" y2="-5.24999" stroke="black"/>
<line x1="815.7" y1="82.75" x2="866.507" y2="-5.24999" stroke="black"/>
<line x1="829.512" y1="82.75" x2="880.319" y2="-5.24999" stroke="black"/>
<line x1="843.333" y1="82.75" x2="894.139" y2="-5.24999" stroke="black"/>
<line x1="857.153" y1="82.75" x2="907.96" y2="-5.24999" stroke="black"/>
<line x1="870.965" y1="82.75" x2="921.772" y2="-5.24999" stroke="black"/>
<line x1="884.786" y1="82.75" x2="935.593" y2="-5.24999" stroke="black"/>
<line x1="898.606" y1="82.75" x2="949.413" y2="-5.24999" stroke="black"/>
<line x1="912.419" y1="82.75" x2="963.225" y2="-5.24999" stroke="black"/>
<line x1="926.239" y1="82.75" x2="977.046" y2="-5.24999" stroke="black"/>
<line x1="940.059" y1="82.75" x2="990.866" y2="-5.24999" stroke="black"/>
<line x1="953.879" y1="82.75" x2="1004.69" y2="-5.24999" stroke="black"/>
<line x1="967.692" y1="82.75" x2="1018.5" y2="-5.24999" stroke="black"/>
<line x1="981.512" y1="82.75" x2="1032.32" y2="-5.24999" stroke="black"/>
<line x1="995.325" y1="82.75" x2="1046.13" y2="-5.24999" stroke="black"/>
<line x1="1009.15" y1="82.75" x2="1059.95" y2="-5.24999" stroke="black"/>
<line x1="1022.97" y1="82.75" x2="1073.77" y2="-5.24999" stroke="black"/>
<line x1="1036.78" y1="82.75" x2="1087.58" y2="-5.24999" stroke="black"/>
<line x1="1050.6" y1="82.75" x2="1101.41" y2="-5.24999" stroke="black"/>
<line x1="1064.42" y1="82.75" x2="1115.23" y2="-5.24999" stroke="black"/>
<line x1="1078.23" y1="82.75" x2="1129.04" y2="-5.24999" stroke="black"/>
<line x1="1092.05" y1="82.75" x2="1142.86" y2="-5.24999" stroke="black"/>
<line x1="1105.87" y1="82.75" x2="1156.68" y2="-5.24999" stroke="black"/>
<line x1="1119.68" y1="82.75" x2="1170.49" y2="-5.24999" stroke="black"/>
<line x1="1133.5" y1="82.75" x2="1184.31" y2="-5.24999" stroke="black"/>
<line x1="1147.32" y1="82.75" x2="1198.12" y2="-5.24999" stroke="black"/>
<line x1="1161.14" y1="82.75" x2="1211.94" y2="-5.24999" stroke="black"/>
<line x1="1174.96" y1="82.75" x2="1225.76" y2="-5.24999" stroke="black"/>
<line x1="1188.78" y1="82.75" x2="1239.58" y2="-5.24999" stroke="black"/>
<line x1="1202.59" y1="82.75" x2="1253.4" y2="-5.24999" stroke="black"/>
<line x1="1216.41" y1="82.75" x2="1267.22" y2="-5.24999" stroke="black"/>
<line x1="1230.23" y1="82.75" x2="1281.04" y2="-5.24999" stroke="black"/>
<line x1="1244.04" y1="82.75" x2="1294.85" y2="-5.24999" stroke="black"/>
<line x1="1257.86" y1="82.75" x2="1308.67" y2="-5.24999" stroke="black"/>
<line x1="1271.68" y1="82.75" x2="1322.48" y2="-5.24999" stroke="black"/>
<line x1="1285.5" y1="82.75" x2="1336.3" y2="-5.24999" stroke="black"/>
<line x1="1299.32" y1="82.75" x2="1350.12" y2="-5.24999" stroke="black"/>
<line x1="1313.13" y1="82.75" x2="1363.94" y2="-5.24999" stroke="black"/>
<line x1="1326.95" y1="82.75" x2="1377.76" y2="-5.24999" stroke="black"/>
<line x1="1340.77" y1="82.75" x2="1391.58" y2="-5.24999" stroke="black"/>
<line x1="1354.59" y1="82.75" x2="1405.4" y2="-5.24999" stroke="black"/>
<line x1="1368.4" y1="82.75" x2="1419.21" y2="-5.24999" stroke="black"/>
<line x1="1382.22" y1="82.75" x2="1433.03" y2="-5.24999" stroke="black"/>
<line x1="1396.04" y1="82.75" x2="1446.84" y2="-5.24999" stroke="black"/>
<line x1="1409.86" y1="82.75" x2="1460.66" y2="-5.24999" stroke="black"/>
<line x1="1423.68" y1="82.75" x2="1474.48" y2="-5.24999" stroke="black"/>
<line x1="1437.49" y1="82.75" x2="1488.3" y2="-5.24999" stroke="black"/>
<line x1="1451.31" y1="82.75" x2="1502.12" y2="-5.24999" stroke="black"/>
<line x1="1465.13" y1="82.75" x2="1515.94" y2="-5.24999" stroke="black"/>
<line x1="1478.94" y1="82.75" x2="1529.75" y2="-5.24999" stroke="black"/>
<line x1="1492.76" y1="82.75" x2="1543.57" y2="-5.24999" stroke="black"/>
<line x1="1506.58" y1="82.75" x2="1557.39" y2="-5.24999" stroke="black"/>
<line x1="1520.4" y1="82.75" x2="1571.2" y2="-5.24999" stroke="black"/>
<line x1="1534.22" y1="82.75" x2="1585.02" y2="-5.24999" stroke="black"/>
<line x1="1548.03" y1="82.75" x2="1598.83" y2="-5.24999" stroke="black"/>
<line x1="1561.85" y1="82.75" x2="1612.66" y2="-5.24999" stroke="black"/>
<line x1="1575.67" y1="82.75" x2="1626.48" y2="-5.24999" stroke="black"/>
<line x1="1589.49" y1="82.75" x2="1640.3" y2="-5.24999" stroke="black"/>
<line x1="1603.3" y1="82.75" x2="1654.11" y2="-5.24999" stroke="black"/>
<line x1="1617.12" y1="82.75" x2="1667.93" y2="-5.24999" stroke="black"/>
<line x1="1630.94" y1="82.75" x2="1681.75" y2="-5.24999" stroke="black"/>
<line x1="1644.75" y1="82.75" x2="1695.56" y2="-5.24999" stroke="black"/>
<line x1="1658.57" y1="82.75" x2="1709.38" y2="-5.24999" stroke="black"/>
<line x1="1672.39" y1="82.75" x2="1723.19" y2="-5.24999" stroke="black"/>
<line x1="1686.21" y1="82.75" x2="1737.01" y2="-5.24999" stroke="black"/>
<line x1="1700.03" y1="82.75" x2="1750.83" y2="-5.24999" stroke="black"/>
<line x1="1713.84" y1="82.75" x2="1764.65" y2="-5.24999" stroke="black"/>
<line x1="1727.66" y1="82.75" x2="1778.47" y2="-5.24999" stroke="black"/>
<line x1="1741.48" y1="82.75" x2="1792.29" y2="-5.24999" stroke="black"/>
<line x1="1755.29" y1="82.75" x2="1806.1" y2="-5.24999" stroke="black"/>
<line x1="1769.11" y1="82.75" x2="1819.92" y2="-5.24999" stroke="black"/>
<line x1="1782.93" y1="82.75" x2="1833.74" y2="-5.24999" stroke="black"/>
<line x1="1796.75" y1="82.75" x2="1847.55" y2="-5.24999" stroke="black"/>
<line x1="1810.57" y1="82.75" x2="1861.37" y2="-5.24999" stroke="black"/>
<line x1="1824.39" y1="82.75" x2="1875.19" y2="-5.24999" stroke="black"/>
<line x1="1838.2" y1="82.75" x2="1889.01" y2="-5.24999" stroke="black"/>
<line x1="1852.02" y1="82.75" x2="1902.83" y2="-5.24999" stroke="black"/>
<line x1="1865.84" y1="82.75" x2="1916.65" y2="-5.24999" stroke="black"/>
<line x1="1879.65" y1="82.75" x2="1930.46" y2="-5.24999" stroke="black"/>
<line x1="1893.47" y1="82.75" x2="1944.28" y2="-5.24999" stroke="black"/>
<line x1="1907.29" y1="82.75" x2="1958.1" y2="-5.24999" stroke="black"/>
</g>
<defs>
<clipPath id="clip0_386_1071">
<rect width="1920" height="76" fill="white"/>
</clipPath>
</defs>
</svg>
