<svg xmlns="http://www.w3.org/2000/svg" width="1920" height="76" fill="none" viewBox="0 0 1920 76"><g stroke="#000" clip-path="url(#a)" opacity=".12"><path d="m-40.995 82.75 50.806-88m-36.986 88 50.807-88m-36.995 88 50.807-88m-36.986 88 50.806-88m-36.986 88 50.807-88m-36.995 88 50.807-88m-36.986 88 50.807-88m-36.987 88 50.807-88m-36.995 88 50.807-88m-36.986 88 50.807-88m-36.987 88 50.807-88m-36.994 88 50.806-88m-36.986 88 50.807-88m-36.987 88 50.807-88m-36.994 88 50.807-88m-36.987 88 50.807-88m-36.987 88 50.807-88m-36.994 88 50.807-88m-36.987 88 50.807-88m-36.986 88 50.806-88m-36.994 88 50.807-88m-36.987 88 50.807-88m-36.986 88 50.806-88m-36.994 88 50.807-88m-36.987 88 50.807-88m-36.994 88 50.807-88m-36.987 88 50.807-88m-36.986 88 50.806-88m-36.994 88 50.807-88m-36.987 88 50.807-88m-36.986 88 50.807-88m-36.987 88 50.807-88m-36.994 88 50.806-88m-36.986 88 50.807-88m-36.995 88 50.807-88m-36.986 88 50.806-88m-36.986 88 50.807-88m-36.995 88 50.807-88m-36.986 88 50.807-88m-36.987 88 50.807-88m-36.994 88 50.806-88m-36.986 88 50.807-88m-36.987 88 50.807-88m-36.994 88 50.807-88m-36.987 88 50.807-88m-36.987 88 50.807-88m-36.994 88 50.807-88m-36.987 88 50.807-88m-36.987 88 50.807-88m-36.994 88 50.807-88m-36.987 88 50.807-88m-36.986 88 50.806-88m-36.994 88 50.807-88m-36.987 88 50.807-88m-36.994 88 50.807-88m-36.987 88 50.807-88m-36.986 88 50.806-88m-36.994 88 50.807-88m-36.987 88 50.807-88m-36.986 88 50.806-88m-36.986 88 50.807-88m-36.995 88 50.807-88m-36.986 88 50.807-88m-36.995 88 50.807-88m-36.986 88 50.806-88m-36.986 88 50.807-88m-36.995 88 50.807-88m-36.986 88 50.807-88m-36.987 88 50.807-88m-36.994 88 50.806-88m-36.986 88 50.807-88m-36.987 88 50.807-88m-36.987 88 50.811-88m-36.998 88 50.808-88m-36.988 88 50.808-88m-36.995 88 50.805-88m-36.98 88 50.8-88m-36.98 88 50.8-88m-36.99 88 50.8-88m-36.98 88 50.81-88m-36.99 88 50.81-88m-37 88 50.81-88m-36.99 88 50.81-88m-36.99 88 50.81-88m-37 88 50.81-88m-36.99 88 50.81-88m-36.99 88 50.8-88m-36.98 88 50.8-88m-36.98 88 50.8-88m-36.98 88 50.8-88m-36.99 88 50.81-88m-36.99 88 50.81-88m-36.99 88 50.81-88m-37 88 50.81-88m-36.99 88 50.81-88m-36.99 88 50.8-88m-36.98 88 50.8-88m-36.98 88 50.8-88m-36.99 88 50.81-88m-36.99 88 50.81-88m-36.99 88 50.81-88m-36.99 88 50.81-88m-37 88 50.81-88m-36.99 88 50.81-88m-36.99 88 50.8-88m-36.98 88 50.8-88m-36.98 88 50.8-88m-36.99 88 50.81-88m-36.99 88 50.81-88m-36.99 88 50.81-88m-37 88 50.81-88m-36.99 88 50.81-88m-36.99 88 50.81-88m-36.99 88 50.8-88m-36.98 88 50.8-88m-36.99 88 50.8-88m-36.98 88 50.81-88m-36.99 88 50.81-88m-36.99 88 50.81-88m-37 88 50.81-88m-36.99 88 50.81-88m-36.99 88 50.81-88m-37 88 50.81-88m-36.99 88 50.81-88m-36.99 88 50.8-88m-36.98 88 50.8-88m-36.98 88 50.8-88m-36.99 88 50.81-88m-36.99 88 50.81-88m-36.99 88 50.81-88m-37 88 50.81-88m-36.99 88 50.81-88m-36.99 88 50.81-88m-36.99 88 50.8-88m-36.98 88 50.8-88m-36.98 88 50.8-88m-36.99 88 50.81-88m-36.99 88 50.81-88m-36.99 88 50.81-88m-37 88 50.81-88m-36.99 88 50.81-88m-36.99 88 50.81-88"/></g><defs><clipPath id="a"><path fill="#fff" d="M0 0h1920v76H0z"/></clipPath></defs></svg>