<svg width="51" height="48" viewBox="0 0 51 48" fill="none" xmlns="http://www.w3.org/2000/svg">
<path d="M33.1799 24.4648L49.8709 13.1834L29.8147 0L13.1237 11.2814L33.1799 24.4648Z" fill="#FF7D44"/>
<path d="M36.9479 37.7588C36.1109 38.0415 35.251 38.2993 34.3736 38.5336L34.4165 48L50.1798 37.2492V34.0337L37.0616 43.2802L36.9479 37.7588Z" fill="#FAC12E"/>
<path d="M34.3133 25.4366L34.3407 31.4358C35.2019 31.1363 36.0332 30.8082 36.8298 30.4559V27.0546L50.1797 18.1549V14.6777L34.3133 25.4366Z" fill="#FAC12E"/>
<path d="M26.5414 33.2645C28.6173 32.9911 30.6454 32.5623 32.5623 32.0037V25.3925L11.8537 12.1016V31.6427C14.5429 32.896 17.6031 33.6217 21.4754 33.6217C23.0369 33.6217 24.7413 33.5018 26.5414 33.2645Z" fill="#FF7D44"/>
<path d="M23.127 40.0652C22.1502 40.0652 21.2163 40.0224 20.3191 39.9441L32.5617 47.8012V38.976C31.2401 39.2699 29.8836 39.511 28.4986 39.6937C26.6302 39.9404 24.8227 40.0652 23.127 40.0652Z" fill="#FF7D44"/>
<path d="M39.3581 28.5396L40.3523 30.3919C36.7814 32.4921 32.0478 34.0971 26.7433 34.7961C16.11 36.1979 10.3444 33.5136 4.56575 28.6304C4.0873 28.2265 3.04839 27.1783 2.63208 26.7104L0 23.6949C0 23.6949 1.92497 27.236 3.83876 29.517C8.95938 35.4498 15.6384 39.8304 28.2967 38.162C33.6478 37.4568 38.4454 35.8736 42.1393 33.7945L42.9751 35.277L50.4326 26.867L39.3581 28.5396Z" fill="#FAC12E"/>
</svg>
