<svg width="231" height="64" viewBox="0 0 231 64" fill="none" xmlns="http://www.w3.org/2000/svg">
<path d="M212.573 46.2406V20.3203H217.088V35.7516L218.688 33.9382L225.017 27.3248H230.528L223.204 34.756L230.706 46.2406H225.48L221.213 39.6627L220.075 37.7072L217.088 40.6583V46.2406H212.573Z" fill="white"/>
<path d="M200.47 46.5601C199.072 46.5601 197.804 46.3349 196.666 45.8845C195.528 45.4104 194.544 44.7467 193.715 43.8934C192.885 43.0163 192.257 41.9852 191.83 40.8C191.404 39.5911 191.19 38.2518 191.19 36.7822C191.19 34.7911 191.57 33.0725 192.328 31.6266C193.11 30.1569 194.201 29.0191 195.599 28.2132C197.021 27.3836 198.693 26.9688 200.613 26.9688C202.201 26.9688 203.611 27.2651 204.844 27.8577C206.076 28.4502 207.06 29.2799 207.795 30.3466C208.553 31.3895 208.968 32.6103 209.039 34.0088H204.701C204.583 33.274 204.322 32.6577 203.919 32.1599C203.54 31.6621 203.054 31.2829 202.461 31.0221C201.869 30.7614 201.217 30.631 200.506 30.631C199.487 30.631 198.61 30.8918 197.875 31.4132C197.14 31.911 196.583 32.6221 196.204 33.5466C195.848 34.4711 195.67 35.5496 195.67 36.7822C195.67 38.1333 195.872 39.2593 196.275 40.16C196.678 41.0608 197.235 41.7482 197.946 42.2222C198.681 42.6726 199.522 42.8978 200.47 42.8978C201.3 42.8978 202.023 42.7556 202.639 42.4711C203.255 42.163 203.741 41.7482 204.097 41.2267C204.476 40.6815 204.701 40.0652 204.773 39.3778H209.11C209.015 40.8237 208.589 42.0919 207.83 43.1823C207.072 44.2489 206.064 45.0786 204.808 45.6712C203.552 46.2638 202.106 46.5601 200.47 46.5601Z" fill="white"/>
<path d="M177.173 46.56C175.727 46.56 174.494 46.2755 173.475 45.7066C172.456 45.1377 171.685 44.2963 171.164 43.1822C170.642 42.0444 170.381 40.6695 170.381 39.0577V27.3242H174.826V37.8843C174.826 38.951 174.968 39.8636 175.253 40.6221C175.537 41.357 175.976 41.9259 176.568 42.3288C177.161 42.7318 177.931 42.9333 178.879 42.9333C179.827 42.9333 180.645 42.6962 181.333 42.2222C182.044 41.7481 182.589 41.1199 182.968 40.3377C183.347 39.5318 183.537 38.631 183.537 37.6354V27.3242H187.981V46.24H183.715L183.537 42.5777H183.324C182.85 43.8577 182.056 44.8414 180.941 45.5289C179.851 46.2163 178.595 46.56 177.173 46.56Z" fill="white"/>
<path d="M156.809 46.2408V27.3251H160.826L161.04 30.4895H161.182C161.609 29.2806 162.296 28.4154 163.244 27.894C164.216 27.3488 165.318 27.0762 166.551 27.0762C166.764 27.0762 166.954 27.0762 167.12 27.0762C167.309 27.0762 167.487 27.0762 167.653 27.0762V31.2718C167.511 31.2718 167.333 31.2718 167.12 31.2718C166.93 31.2481 166.717 31.2362 166.48 31.2362C165.342 31.2362 164.394 31.4258 163.635 31.8051C162.877 32.1607 162.296 32.6822 161.893 33.3696C161.514 34.057 161.3 34.8985 161.253 35.894V46.2408H156.809Z" fill="white"/>
<path d="M149.447 46.2407C148.286 46.2407 147.373 46.0747 146.71 45.7429C146.07 45.3873 145.619 44.8896 145.359 44.2495C145.098 43.6095 144.967 42.8392 144.967 41.9384V30.9161H141.483V27.3249H144.967V21.9915L149.376 21.5293V27.3249H153.394V30.9161H149.376V41.1206C149.376 41.7132 149.507 42.1162 149.767 42.3295C150.028 42.5192 150.431 42.614 150.976 42.614H153.394V46.2407H149.447Z" fill="white"/>
<path d="M121.427 52.1779L121.463 27.3243H125.729L125.872 30.8088H126.156C126.606 29.671 127.365 28.7465 128.432 28.0354C129.522 27.3243 130.838 26.9688 132.378 26.9688C133.516 26.9688 134.547 27.1821 135.472 27.6088C136.42 28.0117 137.226 28.628 137.889 29.4577C138.577 30.2873 139.098 31.3184 139.454 32.551C139.833 33.7599 140.023 35.1703 140.023 36.7822C140.023 38.9155 139.703 40.717 139.063 42.1867C138.423 43.6326 137.522 44.7349 136.361 45.4934C135.223 46.2282 133.895 46.5956 132.378 46.5956C131.359 46.5956 130.435 46.4416 129.605 46.1334C128.775 45.8015 128.064 45.3512 127.472 44.7823C126.903 44.1897 126.464 43.5141 126.156 42.7556H125.872V52.1779H121.427ZM130.743 42.9689C131.691 42.9689 132.521 42.7437 133.232 42.2934C133.943 41.8193 134.488 41.1319 134.867 40.2311C135.27 39.3067 135.472 38.157 135.472 36.7822C135.472 35.3837 135.27 34.234 134.867 33.3333C134.488 32.4088 133.943 31.7214 133.232 31.271C132.521 30.8206 131.691 30.5955 130.743 30.5955C129.676 30.5955 128.787 30.8443 128.076 31.3421C127.365 31.8399 126.832 32.4799 126.476 33.2622C126.121 34.0444 125.943 34.8859 125.943 35.7866V37.7778C125.943 38.4415 126.038 39.0815 126.227 39.6978C126.441 40.3141 126.737 40.8711 127.116 41.3689C127.519 41.843 128.017 42.2341 128.609 42.5423C129.226 42.8267 129.937 42.9689 130.743 42.9689Z" fill="white"/>
<path d="M106.027 46.56C104.581 46.56 103.348 46.2755 102.329 45.7066C101.31 45.1377 100.539 44.2963 100.018 43.1822C99.4964 42.0444 99.2357 40.6695 99.2357 39.0577V27.3242H103.68V37.8843C103.68 38.951 103.822 39.8636 104.107 40.6221C104.391 41.357 104.83 41.9259 105.422 42.3288C106.015 42.7318 106.785 42.9333 107.733 42.9333C108.682 42.9333 109.499 42.6962 110.187 42.2222C110.898 41.7481 111.443 41.1199 111.822 40.3377C112.202 39.5318 112.391 38.631 112.391 37.6354V27.3242H116.836V46.24H112.569L112.391 42.5777H112.178C111.704 43.8577 110.91 44.8414 109.796 45.5289C108.705 46.2163 107.449 46.56 106.027 46.56Z" fill="white"/>
<path d="M85.1555 46.5603C82.8563 46.5603 80.9244 46.2047 79.36 45.4936C77.8192 44.7825 76.6578 43.7869 75.8755 42.5069C75.0933 41.2269 74.6904 39.7691 74.6667 38.1335H79.4666C79.4904 39.1054 79.7037 39.9469 80.1066 40.658C80.5333 41.3691 81.1733 41.9262 82.0266 42.3291C82.88 42.7321 83.9822 42.9336 85.3333 42.9336C86.9452 42.9336 88.237 42.6373 89.2089 42.0447C90.1807 41.4284 90.6666 40.5276 90.6666 39.3424C90.6666 38.655 90.56 38.0861 90.3466 37.6357C90.1333 37.1617 89.7777 36.7706 89.28 36.4624C88.7822 36.1542 88.1185 35.8935 87.2889 35.6802C86.4829 35.4668 85.4637 35.2535 84.2311 35.0402C82.7615 34.8031 81.4578 34.495 80.32 34.1157C79.2059 33.7127 78.2696 33.2268 77.5111 32.6579C76.7526 32.089 76.1837 31.4016 75.8044 30.5957C75.4252 29.766 75.2355 28.7823 75.2355 27.6445C75.2355 26.0801 75.6267 24.7289 76.4089 23.5912C77.2148 22.4534 78.3526 21.5763 79.8222 20.96C81.2918 20.32 83.0459 20 85.0844 20C87.0992 20 88.8177 20.32 90.24 20.96C91.6859 21.6 92.8 22.5008 93.5822 23.6623C94.3644 24.8001 94.7555 26.1275 94.7555 27.6445H90.0266C89.9792 26.7201 89.7303 25.9615 89.28 25.3689C88.8296 24.7526 88.2252 24.3023 87.4666 24.0178C86.7318 23.7334 85.8785 23.5912 84.9066 23.5912C83.9111 23.5912 83.0459 23.7334 82.3111 24.0178C81.6 24.3023 81.0548 24.7052 80.6755 25.2267C80.2963 25.7245 80.1066 26.329 80.1066 27.0401C80.1066 27.9171 80.32 28.5927 80.7466 29.0668C81.197 29.5171 81.9081 29.8727 82.88 30.1334C83.8755 30.3942 85.1555 30.6549 86.72 30.9157C87.834 31.1053 88.9126 31.3423 89.9555 31.6268C91.0222 31.9112 91.9703 32.3379 92.8 32.9068C93.6533 33.452 94.3288 34.2105 94.8266 35.1824C95.3244 36.1305 95.5733 37.3632 95.5733 38.8802C95.5733 40.3973 95.1822 41.7365 94.4 42.898C93.6177 44.0595 92.4563 44.9603 90.9155 45.6003C89.3748 46.2403 87.4548 46.5603 85.1555 46.5603Z" fill="white"/>
<path d="M44.24 32.62L66.4946 17.578L39.7529 0L17.4983 15.042L44.24 32.62Z" fill="#FF7D44"/>
<path d="M49.2639 50.3447C48.1479 50.7217 47.0013 51.0655 45.8315 51.3778L45.8887 63.9998L66.9064 49.6654V45.3779L49.4155 57.7067L49.2639 50.3447Z" fill="#FAC12E"/>
<path d="M45.7511 33.9156L45.7876 41.9146C46.9358 41.5153 48.0443 41.0779 49.1064 40.6081V36.073L66.9063 24.2065V19.5703L45.7511 33.9156Z" fill="#FAC12E"/>
<path d="M35.3885 44.3532C38.1564 43.9887 40.8606 43.417 43.4164 42.6722V33.8571L15.8049 16.1357V42.1908C19.3906 43.8619 23.4708 44.8296 28.6339 44.8296C30.7159 44.8296 32.9884 44.6697 35.3885 44.3532Z" fill="#FF7D44"/>
<path d="M30.836 53.4201C29.5336 53.4201 28.2884 53.3629 27.0921 53.2586L43.4156 63.7348V51.9678C41.6534 52.3596 39.8448 52.6811 37.9982 52.9247C35.5069 53.2536 33.0969 53.4201 30.836 53.4201Z" fill="#FF7D44"/>
<path d="M52.4775 38.0535L53.8031 40.5232C49.0418 43.3235 42.7305 45.4635 35.6577 46.3955C21.48 48.2646 13.7925 44.6855 6.08766 38.1744C5.44973 37.6359 4.06452 36.2383 3.50944 35.6144L0 31.5938C0 31.5938 2.56663 36.3153 5.11834 39.3567C11.9458 47.2671 20.8512 53.1079 37.7289 50.8834C44.8638 49.9431 51.2605 47.8321 56.1858 45.06L57.3001 47.0368L67.2435 35.8232L52.4775 38.0535Z" fill="#FAC12E"/>
</svg>
