<svg width="174" height="48" viewBox="0 0 174 48" fill="none" xmlns="http://www.w3.org/2000/svg">
<path d="M159.43 34.68V15.24H162.816V26.8133L164.016 25.4533L168.763 20.4933H172.896L167.403 26.0667L173.03 34.68H169.11L165.91 29.7467L165.056 28.28L162.816 30.4933V34.68H159.43Z" fill="#00161A"/>
<path d="M150.353 34.9201C149.304 34.9201 148.353 34.7512 147.499 34.4134C146.646 34.0578 145.908 33.5601 145.286 32.9201C144.664 32.2623 144.193 31.4889 143.873 30.6C143.553 29.6934 143.393 28.6889 143.393 27.5867C143.393 26.0934 143.677 24.8045 144.246 23.72C144.833 22.6178 145.651 21.7645 146.699 21.16C147.766 20.5378 149.019 20.2267 150.459 20.2267C151.65 20.2267 152.708 20.4489 153.633 20.8934C154.557 21.3378 155.295 21.96 155.846 22.76C156.415 23.5423 156.726 24.4578 156.779 25.5067H153.526C153.437 24.9556 153.242 24.4934 152.939 24.12C152.655 23.7467 152.29 23.4623 151.846 23.2667C151.402 23.0712 150.913 22.9734 150.379 22.9734C149.615 22.9734 148.957 23.1689 148.406 23.56C147.855 23.9334 147.437 24.4667 147.153 25.16C146.886 25.8534 146.753 26.6623 146.753 27.5867C146.753 28.6 146.904 29.4445 147.206 30.12C147.508 30.7956 147.926 31.3112 148.459 31.6667C149.011 32.0045 149.642 32.1734 150.353 32.1734C150.975 32.1734 151.517 32.0667 151.979 31.8534C152.442 31.6223 152.806 31.3112 153.073 30.92C153.357 30.5112 153.526 30.0489 153.579 29.5334H156.833C156.762 30.6178 156.442 31.5689 155.873 32.3867C155.304 33.1867 154.548 33.8089 153.606 34.2534C152.664 34.6978 151.579 34.9201 150.353 34.9201Z" fill="#00161A"/>
<path d="M132.879 34.92C131.795 34.92 130.871 34.7067 130.106 34.28C129.342 33.8533 128.764 33.2222 128.373 32.3867C127.982 31.5333 127.786 30.5022 127.786 29.2933V20.4933H131.119V28.4133C131.119 29.2133 131.226 29.8978 131.439 30.4667C131.653 31.0178 131.982 31.4444 132.426 31.7467C132.871 32.0489 133.448 32.2 134.159 32.2C134.871 32.2 135.484 32.0222 135.999 31.6666C136.533 31.3111 136.942 30.84 137.226 30.2533C137.511 29.6489 137.653 28.9733 137.653 28.2266V20.4933H140.986V34.68H137.786L137.653 31.9333H137.493C137.137 32.8933 136.542 33.6311 135.706 34.1467C134.888 34.6622 133.946 34.92 132.879 34.92Z" fill="#00161A"/>
<path d="M117.606 34.68V20.4933H120.62L120.78 22.8666H120.886C121.206 21.96 121.722 21.3111 122.433 20.92C123.162 20.5111 123.989 20.3066 124.913 20.3066C125.073 20.3066 125.215 20.3066 125.34 20.3066C125.482 20.3066 125.615 20.3066 125.74 20.3066V23.4533C125.633 23.4533 125.5 23.4533 125.34 23.4533C125.198 23.4355 125.038 23.4266 124.86 23.4266C124.006 23.4266 123.295 23.5689 122.726 23.8533C122.158 24.12 121.722 24.5111 121.42 25.0266C121.135 25.5422 120.975 26.1733 120.94 26.92V34.68H117.606Z" fill="#00161A"/>
<path d="M112.086 34.6801C111.215 34.6801 110.53 34.5556 110.032 34.3067C109.552 34.0401 109.215 33.6667 109.019 33.1867C108.823 32.7067 108.726 32.129 108.726 31.4534V23.1867H106.112V20.4934H108.726V16.4934L112.032 16.1467V20.4934H115.046V23.1867H112.032V30.8401C112.032 31.2845 112.13 31.5867 112.326 31.7467C112.521 31.889 112.823 31.9601 113.232 31.9601H115.046V34.6801H112.086Z" fill="#00161A"/>
<path d="M91.0704 39.1334L91.0971 20.4934H94.2971L94.4037 23.1067H94.6171C94.9549 22.2534 95.5237 21.56 96.3237 21.0267C97.1415 20.4934 98.1282 20.2267 99.2837 20.2267C100.137 20.2267 100.91 20.3867 101.604 20.7067C102.315 21.0089 102.919 21.4712 103.417 22.0934C103.933 22.7156 104.324 23.4889 104.59 24.4134C104.875 25.32 105.017 26.3778 105.017 27.5867C105.017 29.1867 104.777 30.5378 104.297 31.6401C103.817 32.7245 103.142 33.5512 102.27 34.1201C101.417 34.6712 100.422 34.9467 99.2837 34.9467C98.5193 34.9467 97.826 34.8312 97.2037 34.6001C96.5815 34.3512 96.0482 34.0134 95.6037 33.5867C95.1771 33.1423 94.8482 32.6356 94.6171 32.0667H94.4037V39.1334H91.0704ZM98.0571 32.2267C98.7682 32.2267 99.3904 32.0578 99.9237 31.72C100.457 31.3645 100.866 30.8489 101.15 30.1734C101.453 29.4801 101.604 28.6178 101.604 27.5867C101.604 26.5378 101.453 25.6756 101.15 25C100.866 24.3067 100.457 23.7912 99.9237 23.4534C99.3904 23.1156 98.7682 22.9467 98.0571 22.9467C97.2571 22.9467 96.5904 23.1334 96.0571 23.5067C95.5237 23.88 95.1237 24.36 94.8571 24.9467C94.5904 25.5334 94.4571 26.1645 94.4571 26.84V28.3334C94.4571 28.8312 94.5282 29.3112 94.6704 29.7734C94.8304 30.2356 95.0526 30.6534 95.3371 31.0267C95.6393 31.3823 96.0126 31.6756 96.4571 31.9067C96.9193 32.1201 97.4526 32.2267 98.0571 32.2267Z" fill="#00161A"/>
<path d="M79.5201 34.92C78.4356 34.92 77.5112 34.7066 76.7468 34.28C75.9823 33.8533 75.4045 33.2222 75.0134 32.3866C74.6223 31.5333 74.4268 30.5022 74.4268 29.2933V20.4933H77.7601V28.4133C77.7601 29.2133 77.8668 29.8977 78.0801 30.4666C78.2934 31.0177 78.6223 31.4444 79.0668 31.7466C79.5112 32.0488 80.089 32.2 80.8001 32.2C81.5112 32.2 82.1245 32.0222 82.6401 31.6666C83.1734 31.3111 83.5823 30.84 83.8667 30.2533C84.1512 29.6488 84.2934 28.9733 84.2934 28.2266V20.4933H87.6267V34.68H84.4267L84.2934 31.9333H84.1334C83.7779 32.8933 83.1823 33.6311 82.3467 34.1466C81.529 34.6622 80.5868 34.92 79.5201 34.92Z" fill="#00161A"/>
<path d="M63.8667 34.92C62.1422 34.92 60.6933 34.6533 59.52 34.12C58.3644 33.5867 57.4933 32.84 56.9067 31.88C56.32 30.92 56.0178 29.8267 56 28.6H59.6C59.6178 29.3289 59.7778 29.96 60.08 30.4933C60.4 31.0267 60.88 31.4445 61.52 31.7467C62.16 32.0489 62.9867 32.2 64 32.2C65.2089 32.2 66.1778 31.9778 66.9066 31.5333C67.6355 31.0711 68 30.3956 68 29.5067C68 28.9911 67.92 28.5645 67.76 28.2267C67.6 27.8711 67.3333 27.5778 66.96 27.3467C66.5866 27.1156 66.0889 26.92 65.4667 26.76C64.8622 26.6 64.0978 26.44 63.1733 26.28C62.0711 26.1022 61.0933 25.8711 60.24 25.5867C59.4044 25.2844 58.7022 24.92 58.1333 24.4933C57.5644 24.0667 57.1378 23.5511 56.8533 22.9467C56.5689 22.3244 56.4267 21.5867 56.4267 20.7333C56.4267 19.56 56.72 18.5467 57.3067 17.6933C57.9111 16.84 58.7644 16.1822 59.8667 15.72C60.9689 15.24 62.2844 15 63.8133 15C65.3244 15 66.6133 15.24 67.68 15.72C68.7644 16.2 69.6 16.8756 70.1866 17.7467C70.7733 18.6 71.0666 19.5956 71.0666 20.7333H67.52C67.4844 20.04 67.2978 19.4711 66.96 19.0267C66.6222 18.5644 66.1689 18.2267 65.6 18.0133C65.0489 17.8 64.4089 17.6933 63.68 17.6933C62.9333 17.6933 62.2844 17.8 61.7333 18.0133C61.2 18.2267 60.7911 18.5289 60.5067 18.92C60.2222 19.2933 60.08 19.7467 60.08 20.28C60.08 20.9378 60.24 21.4444 60.56 21.8C60.8978 22.1378 61.4311 22.4044 62.16 22.6C62.9067 22.7956 63.8667 22.9911 65.04 23.1867C65.8755 23.3289 66.6844 23.5067 67.4666 23.72C68.2666 23.9333 68.9778 24.2533 69.6 24.68C70.24 25.0889 70.7466 25.6578 71.12 26.3867C71.4933 27.0978 71.68 28.0222 71.68 29.16C71.68 30.2978 71.3866 31.3022 70.8 32.1733C70.2133 33.0445 69.3422 33.72 68.1866 34.2C67.0311 34.68 65.5911 34.92 63.8667 34.92Z" fill="#00161A"/>
<path d="M33.18 24.4648L49.8709 13.1834L29.8147 0L13.1237 11.2814L33.18 24.4648Z" fill="#FF7D44"/>
<path d="M36.9479 37.7588C36.1109 38.0415 35.251 38.2993 34.3736 38.5336L34.4165 48L50.1798 37.2492V34.0337L37.0616 43.2802L36.9479 37.7588Z" fill="#FAC12E"/>
<path d="M34.3133 25.4366L34.3407 31.4358C35.2019 31.1363 36.0332 30.8082 36.8298 30.4559V27.0546L50.1797 18.1549V14.6777L34.3133 25.4366Z" fill="#FAC12E"/>
<path d="M26.5414 33.2645C28.6173 32.9911 30.6454 32.5623 32.5623 32.0037V25.3925L11.8537 12.1016V31.6427C14.5429 32.896 17.6031 33.6217 21.4754 33.6217C23.0369 33.6217 24.7413 33.5018 26.5414 33.2645Z" fill="#FF7D44"/>
<path d="M23.127 40.0652C22.1502 40.0652 21.2163 40.0224 20.3191 39.9441L32.5617 47.8012V38.976C31.2401 39.2699 29.8836 39.511 28.4986 39.6937C26.6302 39.9403 24.8227 40.0652 23.127 40.0652Z" fill="#FF7D44"/>
<path d="M39.3581 28.5396L40.3523 30.3919C36.7814 32.4921 32.0478 34.0971 26.7433 34.7961C16.11 36.1979 10.3444 33.5136 4.56575 28.6304C4.0873 28.2265 3.04839 27.1783 2.63208 26.7104L0 23.6949C0 23.6949 1.92497 27.236 3.83876 29.517C8.95938 35.4498 15.6384 39.8304 28.2967 38.162C33.6478 37.4568 38.4454 35.8736 42.1393 33.7945L42.9751 35.277L50.4326 26.867L39.3581 28.5396Z" fill="#FAC12E"/>
</svg>
